<svg xmlns="http://www.w3.org/2000/svg">
<defs>
<font id="Precious" horiz-adv-x="501" >
  <font-face 
    font-family="Precious"
    font-weight="400"
    font-stretch="normal"
    units-per-em="1000"
    panose-1="0 0 4 0 0 0 0 0 0 0"
    ascent="800"
    descent="-200"
    x-height="339"
    cap-height="1052"
    bbox="-137 -472 1803 1058"
    underline-thickness="30"
    underline-position="-182"
    unicode-range="U+0020-U+2039"
  />
<missing-glyph horiz-adv-x="1034" 
d="M443 725q-29 -119 49 -187h6l3 -2q16 -12 28 -16h14q46 46 50 105l-6 2q-11 9 -21 12q-7 -60 -49 -64q-43 35 -35 88q4 34 16 4h5q7 29 -3 52q37 69 60 -2q4 -4 6 -9h6l12 7l1 6l2 6v33l2 28l-5 2q-22 18 -47 25q-10 -13 -24 -14q-6 18 -17 26q-7 -54 -47 -78
q-31 83 31 146q-2 10 -12 8q-65 -85 -25 -178zM724 854l2 -6q149 -49 164 -172q-11 -105 -113 -148q-23 -17 -45 -20l8 -9q10 0 15 1q29 9 51 6q-2 -9 -10 -15q-71 -43 -144 -43q4 18 17 25l-1 10h13q23 -11 43 -6q25 27 -19 35q11 -12 7 -25q-14 2 -25 10q-21 38 -107 29
q-12 7 -22 6q41 -35 -17 -28v-7q5 -4 9 -8q-8 -7 -15 -10q-67 1 -39 20v7q-58 -6 -18 26l-6 4l-2 -4q-29 -7 -52 -2h-22q-12 -10 -25 -10q-9 -7 -16 -8l-6 -13q25 8 35 -8l-8 6q-11 -3 -21 -2l-4 2q-16 -8 -27 -8q-4 13 8 25q-18 -5 -28 -15v-12q23 -22 57 -2h8
q1 -23 43 -16l17 2q1 -31 -58 -4l-4 -9q28 -19 -4 -16l-16 4q-25 1 -41 8q-14 4 -23 7l-4 2l-14 4l-14 8q-18 7 -29 16l-4 13l8 2h10l14 -4q26 -8 46 -7v7q-25 4 -37 22q23 1 39 6q14 13 26 19q19 52 68 65q5 10 10 15v6l4 22q-21 48 -8 92q-30 14 -47 35q-40 -18 -76 -4
l-25 -2l-24 -26q-11 -73 47 -103l6 -12v-13q-15 -11 -22 -24q45 -9 49 -45l-2 -4l-8 -9q-53 -4 -76 41l-13 7l3 -4l6 -13q16 -20 22 -41h-10q-112 69 -90 170q35 99 139 134l27 16q-47 -5 -80 -25q-61 -3 -101 -47q-20 -4 -34 -12l-4 -6q-12 -13 -19 -23v-6l-10 -45
q-14 3 -8 27q-47 -35 -9 -88q21 -43 -26 6q-1 -56 47 -80q47 -30 -10 -11q40 -69 106 -49l12 -4v-6q-6 -12 -8 -22q47 -23 93 -15q6 -6 6 -14q22 -1 35 -6v-8l-33 -1q-15 2 -27 0l-12 7h-10l-3 2h-6q-30 6 -49 6l2 -6l6 -6l7 -3l12 -8l2 -4q4 -2 4 -4q18 -9 27 -18h36

<glyph glyph-name=".notdef" horiz-adv-x="1034" 
d="M443 725q-29 -119 49 -187h6l3 -2q16 -12 28 -16h14q46 46 50 105l-6 2q-11 9 -21 12q-7 -60 -49 -64q-43 35 -35 88q4 34 16 4h5q7 29 -3 52q37 69 60 -2q4 -4 6 -9h6l12 7l1 6l2 6v33l2 28l-5 2q-22 18 -47 25q-10 -13 -24 -14q-6 18 -17 26q-7 -54 -47 -78
q-31 83 31 146q-2 10 -12 8q-65 -85 -25 -178zM724 854l2 -6q149 -49 164 -172q-11 -105 -113 -148q-23 -17 -45 -20l8 -9q10 0 15 1q29 9 51 6q-2 -9 -10 -15q-71 -43 -144 -43q4 18 17 25l-1 10h13q23 -11 43 -6q25 27 -19 35q11 -12 7 -25q-14 2 -25 10q-21 38 -107 29
q-12 7 -22 6q41 -35 -17 -28v-7q5 -4 9 -8q-8 -7 -15 -10q-67 1 -39 20v7q-58 -6 -18 26l-6 4l-2 -4q-29 -7 -52 -2h-22q-12 -10 -25 -10q-9 -7 -16 -8l-6 -13q25 8 35 -8l-8 6q-11 -3 -21 -2l-4 2q-16 -8 -27 -8q-4 13 8 25q-18 -5 -28 -15v-12q23 -22 57 -2h8
q1 -23 43 -16l17 2q1 -31 -58 -4l-4 -9q28 -19 -4 -16l-16 4q-25 1 -41 8q-14 4 -23 7l-4 2l-14 4l-14 8q-18 7 -29 16l-4 13l8 2h10l14 -4q26 -8 46 -7v7q-25 4 -37 22q23 1 39 6q14 13 26 19q19 52 68 65q5 10 10 15v6l4 22q-21 48 -8 92q-30 14 -47 35q-40 -18 -76 -4
l-25 -2l-24 -26q-11 -73 47 -103l6 -12v-13q-15 -11 -22 -24q45 -9 49 -45l-2 -4l-8 -9q-53 -4 -76 41l-13 7l3 -4l6 -13q16 -20 22 -41h-10q-112 69 -90 170q35 99 139 134l27 16q-47 -5 -80 -25q-61 -3 -101 -47q-20 -4 -34 -12l-4 -6q-12 -13 -19 -23v-6l-10 -45
q-14 3 -8 27q-47 -35 -9 -88q21 -43 -26 6q-1 -56 47 -80q47 -30 -10 -11q40 -69 106 -49l12 -4v-6q-6 -12 -8 -22q47 -23 93 -15q6 -6 6 -14q22 -1 35 -6v-8l-33 -1q-15 2 -27 0l-12 7h-10l-3 2h-6q-30 6 -49 6l2 -6l6 -6l7 -3l12 -8l2 -4q4 -2 4 -4q18 -9 27 -18h36
q31 -4 48 6h10q6 -8 2 -15h-8h-8h-7l-16 -2l-39 -6q41 -32 90 -12q28 7 53 -2q-11 -18 -47 -14q-3 -2 -6 -2q-30 1 -49 -3l4 -6l6 -4q26 -11 41 -22q49 31 92 6q-9 -22 2 -39l-4 -2l-12 -4q-3 -2 -6 -2l-2 -4l-4 -2l-6 -2l-29 -19v-6l4 -6q18 -19 27 -33l-4 -4
q-22 -17 -33 -35q-22 11 -35 23l-12 2l-2 -4l-11 -19l-6 -14l-2 -6l-2 -4q-10 -26 -12 -44h6l4 -2h8q19 -6 33 -6v-6l-2 -14q-3 -19 0 -33l-6 -2q-10 0 -16 -2q-18 1 -31 -4v-14l2 -2l6 -31q2 -3 2 -6q2 -3 2 -6l4 -4l4 -15q7 -7 8 -14h7l4 4l6 2q19 12 33 17q4 -11 12 -19
l22 -28q-24 -19 -34 -41l4 -1l2 -4q13 -8 20 -14q30 -22 58 -29l6 13q5 22 16 35q23 -9 45 -9v-6q0 -10 -2 -16q-1 -18 0 -31q56 -4 99 14l-5 19l-2 4q-8 14 -10 25l8 2q9 6 17 8q13 10 26 14l2 -4q2 -2 1 -4q16 -13 22 -29l8 -2q44 32 62 74h-6l-3 4q-22 12 -36 21
q18 24 22 51h10l5 -2q12 -3 20 -4q10 -4 18 -4l5 14v4l2 34v6v23q-3 8 -2 14l-5 2l-49 -8q-4 29 -16 51h6l4 3l8 2l2 4q16 5 27 12q-21 48 -57 76l-2 4q-24 -21 -35 -39q-3 2 -4 4q-24 17 -41 25q6 30 30 36v5q-4 24 0 41l-4 18q51 18 95 -12q20 19 38 28q-10 9 -22 9h-6
h-19l-6 2q-10 0 -16 2q-18 1 -31 4l-2 8l6 2q14 -1 25 2l8 -2l6 -2h10l6 -2h9q27 -6 43 -6l2 4l24 22l-2 3q-15 4 -26 4q-39 9 -68 4q-4 5 -4 10q14 3 23 6q12 -3 20 -2h8h8h7h34h15h14q23 13 33 31l-33 -2h-6l-4 -2h-6h-6h-5q-8 -3 -16 -2h-6h-25l-14 2q5 11 37 12
q-2 7 -2 16q72 -17 121 27q-14 2 -17 14h6q26 5 46 2q2 2 4 2l6 2l2 3l6 2l4 4l25 20q10 14 14 23q-18 -9 -33 -11v5l4 4l6 2l13 8q15 16 31 24q8 22 6 41q1 29 -15 -8l-4 -2q-13 -15 -28 -22l-1 12q62 63 13 121q7 -32 -10 -43q10 83 -62 100l-4 4l-10 11l-6 2l-5 4l-4 2
l-4 4q-15 5 -24 10q-11 4 -19 10h-2h2h-2l-4 2q-14 -5 -24 2l-3 1l-4 2l-4 2l-4 2l-6 2h-4l-4 2h-4l-4 2h2h-2h-4l-3 2h1h-3h2h-2l-4 2h2h-2h-8l-4 2h2h-4h2h-2l-4 2h2h-4h2h-2zM619 698q18 -43 58 -53q0 -10 -2 -16q-37 -9 -45 -43h14q14 17 31 10q16 -12 18 -31l10 -10
q70 -34 99 35l-6 32q21 55 10 107q-32 46 -82 47q-29 11 -55 10q-55 -31 -50 -88zM679 754q5 -47 -11 -86q-75 34 -2 92zM279 741v-30q1 -26 -2 -44q-12 3 -20 9q-29 40 -9 80q20 -2 31 -15zM773 668q-6 -60 -64 -43v8v6v14l3 21l-2 6l-1 61l13 13q63 -26 51 -86zM326 739
q60 -9 8 -39l-14 2q7 20 4 37h2h-2h2zM371 649q-26 -55 -47 -41q-26 5 -16 57q13 -1 22 -4q10 10 23 11q12 -10 18 -23zM781 581q-21 -31 -57 -22q-29 16 8 24q28 4 47 19q19 -7 2 -21zM414 495l-4 7q23 -1 4 -7zM626 502q-4 -15 -13 -2l8 2h5zM527 465q-15 -13 -12 6z
M646 467q-31 -20 -39 2q23 -3 39 -2zM435 454l6 4q2 -10 -6 -4zM703 434q14 -23 -24 -10q0 7 6 10h18zM320 418v12q33 -10 0 -12zM388 401l2 10q17 -10 -2 -10zM621 407q-6 -12 -6 2zM449 327q-14 -22 -12 2zM605 311q0 -19 -14 0h14zM421 301l2 8q12 -7 -2 -8zM474 282
q-29 5 -2 27q6 -15 2 -27zM568 299q3 -15 -10 -15q-10 8 -4 21zM531 274q12 14 10 -2q11 14 9 0q8 8 12 -6q9 16 10 0l8 8q-1 -5 2 -10q-19 -5 -32 4q-24 -3 -31 16q13 1 12 -10zM582 276v8q16 -7 0 -8zM447 272l2 8q9 -6 -2 -8zM427 254q-30 -10 -49 -25h-19l8 10l6 2l3 4
l6 2l4 3l4 2l12 4l2 4h6q11 9 23 12q3 -10 -6 -18zM468 262q-10 -65 -21 -6l13 8zM511 225q8 12 16 -2l-6 -6h-6h-8l-60 -6q6 10 15 14l8 2h6l31 4zM662 192q-11 -20 -30 -22q-3 5 0 10h6q8 13 16 20l14 17q9 -15 -6 -25zM384 165l-9 -6q-10 -17 -18 -26h-14q5 11 12 16
q15 25 35 39q23 -1 -6 -23zM482 168l4 6q16 -2 -4 -6zM296 159l8 11q12 -26 -8 -11zM644 14q-29 -120 -152 -112l-8 2q-12 3 -22 8q125 -25 172 80q31 127 -82 173l-2 5q108 -46 94 -156zM501 168h24q-16 -3 -29 0h5zM466 161l10 6q29 -1 -10 -6zM494 157
q-107 -32 -102 -137q19 -68 78 -90q73 -21 123 27q49 54 28 118q-24 60 -80 76l-2 6q100 -38 91 -141q-25 -84 -105 -96q-89 -5 -125 68q-42 132 88 171zM535 149q-62 -4 -110 -35q34 35 78 41q19 -1 32 -6zM433 143q5 7 12 10q2 -8 -12 -10zM306 147q-13 -21 -17 -41
q-22 -1 4 45zM406 116q10 16 21 25q2 -11 -21 -25zM543 133l5 -6l6 -3l4 -4l6 -4l4 -6l6 -4l4 -6q23 -15 35 -27l-2 -10q-4 -12 -4 -21l-2 -8l-2 -6l-2 -8l-2 -14l-2 -10q-3 -15 -4 -23l-4 -6l-9 -2q-18 -10 -36 -12q-7 -5 -15 -6q-23 -11 -41 -13l-6 5l-4 4l-6 6l-6 4
l-23 20l-10 11q-16 10 -25 18l4 16l2 10l2 6v6l2 5v6l1 8l10 49l6 2l6 2l4 2l12 4l3 2h6q17 8 34 9l9 -31h6q6 24 22 39zM421 106l-2 -4l-11 -35q-15 11 13 45q2 -3 0 -6zM287 102q-10 -11 -12 2zM710 57q-23 -11 -13 10l10 -4q12 10 27 10q33 -8 -24 -16zM283 2
q-38 11 33 16q40 -9 -33 -16zM658 0q-54 -140 -198 -105q0 5 2 11l4 -11q5 3 6 7q124 -16 170 88h8q-5 6 -4 10h12zM615 -29l2 4q7 13 9 23q4 -18 -11 -27zM589 -39l-4 -2l-3 -2l-4 -2q-41 -23 -78 -25q-10 1 3 6h6l14 5l6 2q15 6 25 8q3 3 6 2l24 10zM585 -64q-3 2 0 5
q4 -2 0 -5zM564 -72q7 -7 -4 -2zM560 -78q-35 -13 -66 -8l-8 2q38 -4 68 8zM380 -119q-11 -14 -23 -20q-18 -2 0 16l4 4l4 2q7 10 13 15q20 -4 2 -17z" />
    <glyph glyph-name=".null" horiz-adv-x="0" 
 />
    <glyph glyph-name="nonmarkingreturn" horiz-adv-x="233" 
 />
    <glyph glyph-name="space" unicode=" " horiz-adv-x="354" 
 />
    <glyph glyph-name="exclam" unicode="!" horiz-adv-x="386" 
d="M148 -4q-46 0 -46 17q0 54 15 54q4 0 49 -11q15 0 15 -40q0 -20 -33 -20zM161 110l-8 1l-3 6l137 493q5 17 20 18l60 5q11 1 11 -9q0 4 -3 -11z" />
    <glyph glyph-name="quotedbl" unicode="&#x22;" horiz-adv-x="327" 
d="M92 424h-15l-30 222q-3 22 -3 21q0 47 40 47t40 -47q0 -10 -3 -21zM250 424h-14l-30 222q-2 7 -2 21q0 47 40 47q39 0 39 -47q0 -4 -1 -11t-1 -10z" />
    <glyph glyph-name="numbersign" unicode="#" horiz-adv-x="769" 
d="M387 710h56l-84 -236h145l83 236h54l-82 -236h154l-18 -47h-154l-51 -146h166l-17 -47h-166l-83 -234h-55l83 234h-142l-85 -234h-55l83 234h-163l20 47h160l51 146h-174l16 47h175zM342 427l-52 -146h146l50 146h-144z" />
    <glyph glyph-name="dollar" unicode="$" horiz-adv-x="626" 
d="M508 852l4 -4l-24 -68q103 -32 112 -56l-16 -20h-8q-70 44 -96 44l-76 -244l64 -84q68 -73 68 -156q0 -125 -176 -180q-42 -19 -89 -24q-9 -56 -31 -56l-20 -4l-4 4v4l16 54q-156 10 -220 138q-12 40 -12 68q0 181 236 264l20 4q-28 51 -28 76v24q0 88 136 136l56 8h32
q12 68 32 68zM304 656v-20q0 -43 68 -112l72 228h-40q-100 -23 -100 -96zM36 300q0 -60 24 -94t64 -56t130 -46l26 116l-20 -4h-20q-84 13 -84 80q0 31 56 68v-8q-24 -34 -24 -52q25 -72 76 -72h20l60 204l-80 84q-155 0 -224 -172zM372 408l-48 -168q34 0 88 88q3 24 8 24
q-11 24 -48 56zM284 100h20q152 26 152 144v16q0 29 -16 64h-4q-67 -88 -112 -88z" />
    <glyph glyph-name="percent" unicode="%" horiz-adv-x="756" 
d="M276 936q131 0 188 -156l4 -44v-28q81 73 144 208l4 4h36v-12q-205 -341 -208 -372q-10 -86 -148 -236l-8 -16q28 -220 220 -220h24v4q-107 0 -124 144v12q0 166 140 264l52 8h24q90 0 120 -160v-16q0 -159 -176 -272q-67 -20 -100 -20q-131 0 -188 156l-4 76h-4
q-130 -234 -152 -260h-40l-4 4h-4q194 283 212 344q19 1 48 68l112 188v4h-4q-89 -58 -132 -180h-8q13 83 116 200h-4l-36 -8h-20l-20 4q-23 -80 -92 -124q-28 -12 -112 -24q-105 0 -132 152v16q0 159 176 272q68 20 100 20zM20 652q16 -73 52 -116h8q-32 39 -32 88v16
q0 135 108 240h-4q-132 -70 -132 -228zM112 600q0 -84 60 -84q95 0 132 136q-9 96 -72 96q-13 0 -48 -24h-8q35 56 76 56q26 -2 56 -32l28 68q-15 64 -56 64h-28q-81 0 -136 -216zM336 876q40 -49 40 -100v-20q0 -27 -20 -100l20 -4q23 0 80 40q-17 98 -56 140
q-46 44 -64 44zM432 536l-68 -124h4q42 53 68 120v4h-4zM472 232q22 -16 40 -16q13 0 48 24h8q-35 -56 -76 -56l-24 8q0 -100 60 -100h24q99 0 144 272v20q-16 64 -96 64h-24q-47 -24 -84 -140zM716 264q-4 -48 -60 -132h4q55 72 60 124v8h-4z" />
    <glyph glyph-name="ampersand" unicode="&#x26;" horiz-adv-x="1015" 
d="M520 732h40q68 -4 68 -16l-12 -36l-80 16h-36q-116 -24 -116 -136v-40q0 -92 36 -92q34 -36 40 -68q57 -7 172 -104q16 45 16 96v44l8 8h52l24 4l4 -4l20 4h76q106 0 124 96v36q0 105 -124 144h-24q-84 -16 -84 -76q0 -13 24 -48v-8q-56 35 -56 76q0 56 84 72h8
q140 -27 140 -56q72 -65 72 -136q0 -72 -60 -140q-45 -36 -256 -36l-28 -100q124 -150 140 -224l-4 -4h-8q-62 3 -208 112q-139 -116 -240 -116q-219 0 -240 40q-92 53 -92 160q0 185 248 268l44 4h16l-4 4v52q0 142 172 200zM36 232q0 -143 140 -200h4v4q-68 44 -68 120v20
q0 143 208 200l20 4l-28 64l-40 8q-179 0 -236 -192v-28zM204 196q32 -32 72 -32q100 0 136 108q-39 36 -48 60h-8q-109 0 -152 -136zM460 320l-4 -4v-4q9 -54 116 -148q44 45 44 68q-96 84 -156 88zM428 248q-45 -69 -128 -92l-52 -8h-8l-36 8v-4q0 -95 120 -112h40
q89 0 184 96zM640 200l-44 -60q88 -69 124 -84v8q0 57 -80 136z" />
    <glyph glyph-name="quotesingle" unicode="'" horiz-adv-x="169" 
d="M92 424h-15l-30 222q-3 22 -3 21q0 47 40 47q39 0 39 -47q0 -14 -2 -21z" />
    <glyph glyph-name="parenleft" unicode="(" horiz-adv-x="416" 
d="M264 -311v-6l-14 -6l-4 3q-77 174 -77 404q0 187 83 381q80 187 247 405h6l12 -5l-1 -6q-285 -490 -285 -927q0 -155 33 -243z" />
    <glyph glyph-name="parenright" unicode=")" horiz-adv-x="416" 
d="M249 859v8l12 3l7 -3q77 -178 77 -405q0 -186 -84 -381q-81 -186 -249 -404h-5l-13 6l3 4q286 502 286 929q0 141 -34 243z" />
    <glyph glyph-name="asterisk" unicode="*" 
d="M244 556q-37 53 -111 111v7l8 24l4 1q61 -48 122 -140q19 88 30 115q14 33 38 33q29 0 41 -3v-5q-80 -77 -93 -152q104 63 158 63q12 0 20 -4l37 -19l1 -5q-154 -16 -207 -46q149 -52 149 -83q0 -23 -8 -46h-5q-24 60 -141 112q63 -101 63 -137q0 -5 -6 -18l-17 -37h-4
q-10 119 -53 190q-33 -76 -33 -184l-4 -6h-21l-3 3v6q0 84 40 174q-66 -24 -139 -86h-8l-21 12l-1 5q69 54 172 92q-84 37 -176 37l-6 5v21l3 3q67 0 171 -43z" />
    <glyph glyph-name="plus" unicode="+" horiz-adv-x="833" 
d="M393 596h48v-275h269v-47h-269v-274h-48v274h-269v47h269v275z" />
    <glyph glyph-name="comma" unicode="," horiz-adv-x="231" 
d="M28 -102l8 23q80 47 80 83q0 21 -21 21q-6 0 -25 -7l-5 4l12 45q5 20 40 20q47 0 47 -48q0 -72 -136 -141z" />
    <glyph glyph-name="hyphen" unicode="-" horiz-adv-x="431" 
d="M133 173l-3 8l14 41l7 5h224l6 -6l-14 -45l-6 -3h-228z" />
    <glyph glyph-name="hyphen" unicode="&#x2010;" horiz-adv-x="431" 
d="M133 173l-3 8l14 41l7 5h224l6 -6l-14 -45l-6 -3h-228z" />
    <glyph glyph-name="period" unicode="." horiz-adv-x="231" 
d="M98 -4q-46 0 -46 17q0 54 15 54q5 0 49 -11q14 0 14 -40q0 -20 -32 -20z" />
    <glyph glyph-name="slash" unicode="/" horiz-adv-x="335" 
d="M71 -142h-52l-3 7l396 938h32l3 -6z" />
    <glyph glyph-name="zero" unicode="0" horiz-adv-x="464" 
d="M338 716h20q102 0 140 -132q12 -37 12 -84v-68q0 -203 -152 -372q-62 -60 -128 -60h-32q-100 0 -156 160l-8 68v32q0 197 160 384q81 72 144 72zM126 208v-48q0 -120 88 -120q107 0 120 136v4h8q0 -56 -24 -108q48 40 108 228q28 129 28 224q-13 164 -84 164h-32
q-86 0 -176 -256q-36 -128 -36 -224zM234 316q49 0 96 -80l8 -48h-8q0 68 -84 100h-16q-55 0 -72 -84v-8q0 -53 52 -64h4q22 0 40 32h4v-4q-6 -52 -44 -52q-64 17 -64 96q12 112 84 112z" />
    <glyph glyph-name="one" unicode="1" horiz-adv-x="464" 
d="M403 696h28l8 -8l-208 -684l-4 -4h-64q-8 0 -8 12q148 467 168 564q-133 -140 -176 -140h-8q-64 0 -64 48v8l12 40h8l-4 -16q9 -60 44 -60q30 0 76 52l72 68l-52 -4l-28 4q-54 0 -96 -20v4q0 34 176 40q36 0 68 68q25 28 52 28zM35 344q85 0 108 -60l4 -28
q-21 -108 -48 -108h-4q32 38 32 84q0 75 -76 88h-40q-33 0 -80 -40h-4v4q61 60 108 60zM-81 272v-4l-12 -12v4zM-97 252v-8q-24 -42 -24 -84q29 -140 140 -140h8l80 12q-50 -32 -96 -32h-8q-100 0 -136 96l-4 44v4q0 61 40 108zM-17 200h8l-8 -32q13 -44 60 -44l44 16
q-29 -32 -64 -32h-12q-32 0 -44 44zM115 40h4v-8h-12z" />
    <glyph glyph-name="two" unicode="2" horiz-adv-x="464" 
d="M326 720h24q116 0 136 -140q0 -107 -260 -364l-72 -76q144 -68 172 -68h24q38 0 104 88h4l8 -8q-34 -89 -116 -144l-28 -8h-24q-77 19 -204 72l-64 -64h-8q-10 0 -12 16l80 124l-60 96l-12 44v8h8q0 -25 72 -120l8 -24h16q268 286 268 444q-8 80 -56 80h-12
q56 -70 56 -116h-8q-15 59 -56 92l-36 20q-63 -27 -96 -104l-24 -80h-12l-12 8q5 87 76 172h-8q-80 -39 -80 -96h-8q0 46 68 108q43 24 84 24q0 11 60 16zM238 604h8q48 0 48 -76v-4q0 -84 -92 -116q-88 23 -88 88l-4 32v28h8v-16q0 -75 68 -104h20q57 0 80 72v28
q-11 48 -48 48q-17 0 -36 -24h-4v4q15 40 40 40zM78 364h16q44 -30 44 -72q-7 -52 -16 -52v4l4 28q-9 68 -44 68q-26 0 -48 -20v8q15 36 44 36z" />
    <glyph glyph-name="three" unicode="3" horiz-adv-x="637" 
d="M467 716h38q102 0 121 -135q0 -136 -261 -237v-5q178 0 227 -126l5 -43v-19q0 -145 -208 -271q-61 -29 -120 -29h-54q-188 0 -188 150q0 114 135 188q25 15 49 15h4q107 -9 107 -73v-43q-42 -125 -136 -125q-53 12 -53 52q14 44 24 44h5l-9 -29q12 -48 62 -48q46 0 83 72
l4 39q-11 87 -87 87h-33q-136 -47 -136 -155q30 -135 102 -135l43 -5h44q129 0 203 169q33 114 43 184q-36 67 -97 67h-43l-82 -14h-5l-10 9v10q137 72 208 135q68 71 68 145q-12 73 -58 73h-29q-66 0 -164 -126h-5q-12 0 -15 20q97 159 218 159z" />
    <glyph glyph-name="four" unicode="4" horiz-adv-x="575" 
d="M505 708l10 -14q-65 -126 -411 -522h184l130 5q41 203 68 203l67 9l10 -9l-48 -203h34l9 -10q-9 -22 -19 -24h-39q-59 -275 -77 -275l-92 -15l-5 5v5l78 275h-10l-348 -5l-5 15q200 272 338 531q74 29 126 29z" />
    <glyph glyph-name="five" unicode="5" horiz-adv-x="663" 
d="M654 724v-10q0 -97 -154 -111l-189 -5l-87 -270h5q78 58 159 58h34q154 0 174 -184q0 -177 -227 -313q-83 -39 -150 -39h-57q-72 0 -102 63q-24 29 -24 82q0 114 135 188q25 15 48 15h5q107 -9 107 -73v-43q-42 -125 -136 -125q-53 12 -53 52q14 44 24 44h5l-9 -29
q12 -48 62 -48q46 0 82 72l5 39q-11 87 -87 87h-33q-136 -47 -136 -155q0 -99 107 -140h48q126 0 232 154q19 52 48 194q-26 116 -106 116h-39q-40 0 -150 -78h-9l-10 10q112 390 135 415l39 10h178q72 0 126 24z" />
    <glyph glyph-name="six" unicode="6" horiz-adv-x="551" 
d="M444 857h9l15 -14v-9q-314 -328 -314 -637v-14q16 -145 94 -145h28q79 0 135 136v14q-5 103 -88 126h-14q-80 0 -80 -93l-14 -5v-19q11 -56 56 -56h5q33 4 33 28h9q-11 -56 -47 -56q-65 0 -65 94v23q0 184 145 262l37 10h33q99 0 126 -169q0 -163 -164 -295
q-67 -37 -121 -37q-162 0 -201 182l-5 52q0 274 369 608zM252 319q37 28 57 28q84 0 112 -121v-29h4q19 71 19 122v61q0 50 -42 75h-37q-59 0 -113 -136z" />
    <glyph glyph-name="seven" unicode="7" horiz-adv-x="692" 
d="M360 699h150q87 0 145 -10l15 15h4l15 -15v-4q-184 -262 -184 -281q0 -143 -222 -329q-118 -212 -126 -212q-24 -10 -87 -10h-19q-10 0 -10 15q21 45 111 169l-72 116v29h9q0 -36 78 -121q345 447 420 532v5h-116v-5q15 -18 29 -92h-9q0 29 -44 97h-126q-67 0 -101 -102
l-19 -5l-5 5v-10h-10q38 213 174 213zM350 559q49 -17 49 -68v-19h-5q0 58 -63 58h-10l-29 -24v9q16 44 58 44zM186 472h10v-10q0 -48 72 -106h10q82 0 111 72h10v-4q-49 -97 -102 -97q-106 19 -106 106l-5 34v5zM491 404l-145 -227h4q146 139 146 213v14h-5zM157 274h10
q48 -29 48 -92v-5l-10 -10h-4q-9 78 -49 78h-9q-21 0 -49 -25v10q21 44 63 44z" />
    <glyph glyph-name="eight" unicode="8" horiz-adv-x="569" 
d="M365 851h48q152 -19 152 -152v-10q0 -104 -147 -261q76 -125 76 -209v-5q0 -148 -171 -209l-43 -5h-38q-157 0 -195 162v28q0 115 209 309q-57 92 -57 176q0 115 128 166zM285 699q0 -59 114 -243h4q105 129 105 238q-9 124 -81 124h-47q-71 0 -95 -119zM118 200
q0 -136 133 -167h19q86 0 124 114l5 34v19q0 91 -62 104h-5q-74 0 -104 -62h-10v5q52 86 100 86h14l24 -5l-76 133h-5q-157 -142 -157 -261zM213 223h10v-19h-10v19zM223 190q6 -52 52 -52q17 0 38 19h5q-20 -37 -33 -43h-24q-45 0 -52 71l4 5h10z" />
    <glyph glyph-name="nine" unicode="9" horiz-adv-x="577" 
d="M358 736h20q149 0 192 -226v-72q0 -190 -245 -466q-123 -121 -149 -121l-10 15v5q303 268 303 629q0 198 -120 198h-5q-129 0 -144 -164v-5h-10v15l5 43v5h-5q-43 -89 -43 -173q0 -140 101 -140q68 0 120 101h-5l-43 -14q-59 0 -115 96l-10 58h10q0 -82 101 -121h19
q57 0 77 87h9v24q0 63 -62 77h-5q-27 0 -48 -39h-5v5q8 63 53 63q66 0 77 -125l5 -34q-22 -122 -87 -202q-63 -63 -110 -63h-29q-106 0 -130 169q0 196 202 351q42 24 86 24z" />
    <glyph glyph-name="colon" unicode=":" horiz-adv-x="255" 
d="M110 -4q-46 0 -46 17q0 54 15 54q13 -2 48 -11q15 0 15 -40q0 -20 -32 -20zM188 262q-47 0 -47 19q0 52 15 52q-2 0 48 -9q17 -3 17 -40q0 -22 -33 -22z" />
    <glyph glyph-name="semicolon" unicode=";" horiz-adv-x="255" 
d="M40 -102l6 23q81 47 81 83q0 21 -20 21q-5 0 -26 -7l-4 4l12 45q5 20 40 20q47 0 47 -48q0 -71 -136 -141zM201 262q-45 0 -45 19q0 52 14 52q-2 0 49 -9q15 -3 15 -40q0 -22 -33 -22z" />
    <glyph glyph-name="less" unicode="&#x3c;" horiz-adv-x="833" 
d="M704 554v-53l-500 -203l500 -202v-53l-575 236v40z" />
    <glyph glyph-name="equal" unicode="=" horiz-adv-x="833" 
d="M124 413h586v-49h-586v49zM124 231h586v-47h-586v47z" />
    <glyph glyph-name="greater" unicode="&#x3e;" horiz-adv-x="833" 
d="M129 554l575 -235v-40l-575 -236v53l499 202l-499 203v53z" />
    <glyph glyph-name="question" unicode="?" horiz-adv-x="426" 
d="M260 812h28q80 0 124 -108l8 -48q0 -125 -212 -392l-68 -132l4 -4v-4l-8 -8l-16 28l16 52q0 30 -88 124l-12 36v12h8q0 -22 88 -116l12 -40h4q180 355 180 464q0 81 -56 96l-20 4h-28q-72 0 -120 -148v-8q0 -48 76 -88h8q88 19 88 76v20q-7 60 -56 60q-28 -8 -28 -28h-8
v4q0 39 36 44h12q52 0 52 -96q-26 -104 -80 -104h-12q-66 0 -92 92v4q-6 0 -16 -32h-12l-8 8q7 89 84 196q53 36 112 36zM92 448q47 0 60 -72v-36h-8v12q-13 72 -52 72q-19 0 -48 -28v4q12 48 48 48zM92 88q84 0 84 -48v-20q-6 -20 -28 -20h-32q-40 3 -40 24q4 64 16 64z
" />
    <glyph glyph-name="at" unicode="@" horiz-adv-x="987" 
d="M536 1012h68q254 0 380 -232q32 -92 32 -172q0 -130 -72 -240q28 -79 28 -120q0 -139 -176 -196q-114 -52 -232 -52h-56q-297 0 -452 252q-56 108 -56 224q0 306 316 484q120 52 220 52zM64 472v-28q0 -285 332 -400q61 -16 116 -16h64q116 0 240 64q120 60 120 196
l-8 56q-75 -75 -120 -96q-26 -48 -76 -48h-8q-82 0 -156 68l-8 16q-61 -48 -116 -48h-32q-136 32 -136 180v20q0 191 204 304l60 12h36q76 0 108 -108h4q27 100 36 100h56l8 -8q-56 -200 -56 -220q69 0 188 -116v-8h4q64 85 64 224q0 258 -252 352q-69 20 -128 20h-64
q-268 0 -424 -268q-56 -108 -56 -248zM348 400v-32q14 -104 76 -104h32q31 0 84 40q-28 48 -28 88q0 96 144 136l8 72q0 81 -68 120l-24 8h-36q-91 0 -184 -268zM724 504q-44 -159 -44 -184q7 -56 44 -56h36q24 0 24 28q0 13 -24 48v8q56 -39 56 -64q21 0 96 88v8
q-34 75 -148 116zM552 380v-32l4 -20q58 61 92 164h-4q-92 -26 -92 -112zM612 356l-40 -64q43 -76 128 -76q21 0 52 16v4q-93 0 -120 48q-16 47 -16 72h-4z" />
    <glyph glyph-name="A" unicode="A" horiz-adv-x="1228" 
d="M786 1058h42q190 0 282 -199q25 -74 25 -146q-7 -177 -25 -285q89 -34 89 -61l-11 -7h-3q-46 46 -75 46v-3q-14 -56 -21 -182q0 -135 128 -231l53 -21q13 19 18 60h7l7 -7q0 -25 -14 -60h4l32 -7q64 0 64 32l-4 24l4 4h3q29 0 36 -39q0 -39 -57 -54q-34 0 -103 22
q0 -12 -54 -22h-35q-144 0 -189 253v89q0 58 14 135l-125 -43q-103 -356 -374 -356h-32q-210 0 -349 239q-50 115 -50 224q0 277 271 431q59 26 196 36q99 128 246 128zM561 923q79 0 196 -93q66 -74 89 -171q51 -18 68 -18l36 86h10l4 -4h3l-35 -92h14q29 89 85 124l22 11
q0 55 -50 150q-84 114 -196 114h-50q-107 0 -196 -107zM102 442q0 -190 142 -324h4q-15 42 -15 71q0 100 93 175q-25 53 -25 99v15q7 78 21 78h8l-8 -71v-15q0 -45 18 -92q88 53 153 53h15q135 -23 135 -117v-7l-3 -25h3q51 27 82 64v3q-23 0 -61 40l15 14q34 -36 64 -36
q64 81 64 132q-44 -21 -86 -21h-28q-124 0 -200 160q-17 55 -17 103q0 75 42 164h-3q-221 0 -360 -239q-53 -101 -53 -224zM547 905q-50 -82 -50 -150v-25q0 -147 135 -217q29 -14 50 -14h4v3q-39 11 -39 54v7q0 37 50 75h3q-21 -31 -21 -54v-21q0 -50 71 -50h32q38 0 43 43
v78q-6 14 -68 18h-43q0 11 47 18h50l3 -4h4v7q-4 60 -97 161q-102 71 -174 71zM885 381h4q118 34 118 47q46 262 46 313h-4q-73 -62 -117 -206zM850 631v-4l3 -75q10 5 43 57v4zM793 367h3q57 0 57 29l86 224q-10 -14 -25 -14q0 -17 -68 -86q-25 -104 -53 -153zM347 374
q0 -39 97 -99q34 -18 74 -18h36q53 4 53 14v32q0 77 -89 103l-42 7q-64 0 -129 -39zM326 356q-61 -65 -61 -138q0 -134 136 -182q43 -11 78 -11h25q128 0 232 121q54 81 100 203h-4q-60 0 -78 -28q-69 -67 -139 -86q-48 -71 -82 -71q-41 -21 -79 -21h-7q-75 12 -75 71
q0 19 40 57q-19 0 -86 85zM419 264q-18 -30 -18 -43q22 -64 68 -64h10q75 0 114 75h-64q-52 0 -110 32zM1089 121v-3q17 -174 106 -174h32l25 7q-121 71 -160 170h-3z" />
    <glyph glyph-name="B" unicode="B" horiz-adv-x="1252" 
d="M738 1058h46q138 0 306 -127q44 33 87 39h7q64 0 64 -10v-7l-4 -4v-3l-24 3h-29q-49 0 -87 -35q112 -103 112 -215q0 -130 -123 -179v-3q88 -73 88 -166l-7 -70q31 -21 70 -130q52 -82 155 -112l35 -7q63 0 63 31l-3 25l3 3h4q28 0 35 -38q0 -39 -56 -53q-181 0 -310 250
q-6 0 -31 -81q-94 -162 -197 -162h-25q-91 0 -91 105v11l3 25q-143 -144 -309 -144h-112q-76 0 -166 84q-186 143 -186 383q0 278 278 411q95 28 95 35q136 141 309 141zM453 921v-4h81q162 0 267 -186q19 -45 25 -88h7q35 82 35 151l-14 92l4 3h3q21 -9 28 -102
q0 -68 -39 -151l53 -17q47 193 162 298q-134 120 -281 120h-50q-146 0 -281 -116zM383 749v-35q0 -141 169 -208l35 -3h63q-10 18 -10 35v7q0 37 49 74h3q-21 -31 -21 -53v-21q0 -16 14 -32q52 17 123 88v21q-33 11 -59 11h-43q0 10 46 17h49v4q-7 77 -91 168
q-85 74 -186 74q-109 0 -109 -31q-32 -47 -32 -116zM1083 896q-72 -89 -95 -235q-32 -206 -78 -362q52 42 113 42h21l46 -7l7 81q0 55 -36 98l-24 -3h-18q-28 2 -28 24q0 14 28 18l46 -14q63 64 63 172v49q0 72 -45 137zM88 478v-21l-4 -4l4 -3v-28q0 -172 154 -310v4
q-10 35 -10 60q0 94 91 175q-38 47 -38 127v11q4 67 17 70h7l4 -4h3l-10 -66v-22q0 -50 31 -105q87 53 151 53h14q134 -22 134 -120q103 52 155 183v7q-26 -14 -57 -14h-21q-16 0 -42 18q-14 -7 -38 -7h-43q-136 0 -211 154q-17 40 -17 92v28q0 55 39 123h-4
q-104 -30 -204 -137q-105 -119 -105 -264zM836 608l-3 -84l3 -11q-6 0 -28 -81q-53 -109 -161 -168q-21 0 -36 -43q-66 -91 -161 -91h-7q-74 12 -74 70q0 28 49 60v-7q-21 -30 -21 -46q22 -63 67 -63h10q90 0 123 102v4q-15 -7 -56 -7h-32q-43 0 -87 21l-4 -4q0 6 -49 35
q-39 39 -39 46h-3q-64 -58 -64 -137q0 -105 88 -158q49 -21 106 -21h45q245 0 384 537l10 29l-60 21v-4zM710 503v-4l24 -3h29q35 0 35 10q10 36 10 63q-75 -66 -98 -66zM850 538h8v-4l-11 -10h-4zM344 359v-4q67 -88 151 -88h39l67 11v10q0 76 -88 102l-42 7
q-63 0 -127 -38zM847 127v-25q0 -50 53 -67h14q95 0 169 274q-24 11 -50 11h-17q-114 0 -166 -158z" />
    <glyph glyph-name="C" unicode="C" horiz-adv-x="1125" 
d="M583 1058h41q149 0 255 -111v-4h3q67 59 111 59h28q84 -21 84 -160v-3q0 -144 -94 -296q38 -58 38 -129q0 -85 -56 -215q29 -111 91 -157q62 -45 132 -55q63 0 63 31l-4 24l4 4h3q28 0 35 -39q0 -37 -56 -51q-144 0 -257 163q0 9 -32 52q-9 -47 -139 -160
q34 -76 136 -146v-3l-14 -18q-97 71 -153 154v3h-38q-121 0 -178 205l-7 55h-87l-3 4h-4v-4l7 -41q0 -92 -132 -115h-14q-138 0 -237 153q-17 59 -17 87q0 104 111 153q-24 66 -24 146q0 256 264 386q72 28 140 28zM207 623q0 -44 17 -115l42 4h45l52 -4v-7h-31
q-47 0 -97 -17q48 -97 76 -97q119 -25 119 -49q12 -7 45 -52l104 -7l11 97q-25 57 -150 108v7q45 -3 153 -80h4q0 39 52 188h-4q-55 23 -87 104q-14 42 -21 101h4l-4 4q0 148 129 212l28 7v3l-52 4h-49q-173 0 -313 -181q-73 -104 -73 -230zM548 811v-17q0 -120 115 -167
q33 85 122 205q-20 21 -60 21q-39 0 -52 -45v-11h-7v14q0 77 63 77q32 0 63 -46l73 84q-50 66 -133 66q-111 0 -167 -108q-17 -33 -17 -73zM906 912q26 -33 49 -91l-3 -3h-4l4 -3v-7l-7 -7h-11q0 28 -42 94h-7l-66 -115l11 -32q0 -76 -56 -142q-42 -20 -42 -70
q-24 -68 -48 -226h3q94 27 94 49q50 219 150 219h17l28 -7l3 70v20q0 59 -24 115v4h7q42 -81 42 -160h3q66 158 66 271q-13 97 -55 97h-14q-45 0 -98 -76zM812 762l-48 -121q52 43 52 104v17h-4zM802 369h3q139 105 164 185l-17 3h-21q-79 0 -129 -188zM990 522
q-41 -66 -192 -191l-6 -101q0 -100 31 -198h3q80 64 119 156q59 139 59 275q-5 59 -14 59zM123 310q0 -129 160 -184l56 -4q118 21 118 108v35q0 4 -73 28q-48 28 -94 66h-3q-31 -25 -31 -52q0 -12 20 -42v-7q-48 30 -48 66q0 34 45 56q-55 69 -59 94q-91 -55 -91 -164z
M315 373q77 -71 132 -80q-35 80 -122 80h-10zM687 282q36 -57 91 -181h3v4q-17 61 -17 136l7 80h-4zM673 241v-63q0 -128 73 -157h39v4q-42 73 -108 216h-4zM590 49q53 0 101 -45h-4q-35 21 -70 21h-20q-70 0 -70 -48v-21q0 -22 21 -52h-4q-48 36 -48 73v7q0 47 69 65h25z
M698 -2h3l10 -11v-3h-6zM798 -62q47 0 74 -27v-4l-42 7h-14q-27 0 -167 -42h-42q-45 7 -45 18h42q30 0 174 48h20z" />
    <glyph glyph-name="D" unicode="D" horiz-adv-x="1243" 
d="M725 1058h53q174 0 317 -136q71 38 112 38h28q21 -2 21 -10v-11h-49q-50 0 -94 -38q115 -129 115 -314v-49q0 -101 -39 -217q26 -10 63 -143q48 -99 154 -136l49 -11q63 0 63 32l-4 24l4 4h3q28 0 35 -39q0 -38 -56 -52q-154 0 -269 182q-31 63 -31 80h3q-13 31 -24 35
q-121 -287 -265 -287h-25q-68 0 -83 98l3 28v7q-134 -133 -290 -133h-45q-119 0 -206 70q-206 153 -206 412q0 324 346 440q34 0 76 42q119 84 241 84zM484 943h7q250 0 332 -231l14 -63h3q35 99 35 154l-14 87l4 4h7q16 0 24 -98q0 -68 -38 -154l49 -13v3q41 122 111 213
l63 63q-138 136 -303 136h-46q-137 0 -248 -101zM380 733q0 -158 171 -223l49 -7h41l18 3q-14 24 -14 42v7q0 37 49 74h3q-21 -31 -21 -53v-21q0 -13 18 -38q49 17 115 91v21q0 11 -56 13h-42q0 11 46 18h49q0 83 -102 192q-87 66 -185 66h-63q-44 -45 -69 -136zM86 471
q0 -212 168 -356v4q-14 41 -14 70q0 91 87 171q-39 52 -45 132q10 67 21 88l21 -7q-14 -35 -14 -70v-11q0 -63 38 -115h4q80 49 143 49h14q132 -24 132 -112q105 59 151 178h-4q-23 -10 -49 -10h-21l-31 10q-23 -10 -56 -10h-35q-130 0 -216 150q-21 53 -21 105q0 70 56 171
h-4q-198 -73 -272 -227q-53 -102 -53 -210zM914 311h3q79 63 143 63q27 0 91 -21q35 130 35 244q0 161 -91 290q-63 -66 -87 -164zM844 615q-7 -8 -14 -91l3 3h7q-15 -10 -38 -91q-59 -124 -161 -160q-70 -133 -185 -133h-7q-73 12 -73 70q0 27 49 59v-7q-21 -30 -21 -45
q22 -63 66 -63h11q89 0 122 101v4l-52 -4h-35q-97 0 -185 95q-60 -65 -60 -137q0 -117 109 -167q39 -14 83 -14h18l3 -4l4 4h21q233 0 363 503q21 47 21 66l-49 14v-3zM725 510v-4h49q28 0 28 25l7 38q-71 -59 -84 -59zM854 548h7v-3l-10 -11h-4zM352 370q67 -87 153 -87h32
q66 5 70 17q0 76 -88 102l-42 7q-62 0 -125 -39zM833 115v-17q13 -67 63 -67h28q117 0 224 297h-4q-50 18 -77 18h-24q-100 0 -185 -143q-25 -43 -25 -88z" />
    <glyph glyph-name="E" unicode="E" horiz-adv-x="1301" 
d="M730 1058h41q66 0 393 -100q69 -14 100 -14h48q70 0 86 52v28l-3 17l3 3h11q10 -2 10 -27v-4q0 -110 -131 -155l-38 -3h-21q-38 0 -141 24q-77 -58 -124 -338l66 10h31q86 -19 86 -62q-3 -17 -11 -17h-13q-5 0 -21 38q-22 21 -48 21h-7q-90 -6 -90 -21q-17 -75 -17 -207
q0 -110 72 -193l62 -3q129 0 180 107l3 27v11l-17 17q-31 -17 -48 -17h-7q-35 0 -45 55v10q0 39 55 48h10q69 -18 69 -100v-27q0 -127 -134 -197q0 -7 27 -10q62 0 62 31l-3 24l3 4h4q27 0 34 -38q0 -38 -55 -52q-51 0 -107 28l-34 -4h-41q-88 0 -245 107q-147 -97 -266 -97
h-48q-196 0 -341 224q-62 108 -62 242v10q0 273 255 417q70 31 183 41q87 90 224 90zM530 965q137 0 245 -128q48 -63 65 -172l69 -17q40 129 127 220l28 25q-74 23 -283 110q-60 17 -82 17h-35q-75 0 -134 -55zM96 489q0 -208 168 -355h4q-17 42 -17 76q0 160 213 231l38 4
h14q131 -24 131 -111q100 55 145 176q-23 -10 -48 -10h-21l-38 10q-38 -10 -66 -10q-144 0 -203 179l-7 62v24q0 91 66 179h-4q-131 -25 -207 -89q-168 -157 -168 -366zM433 762v-11q0 -167 142 -224l31 -3h55l-11 41v7q0 36 49 72h3q-21 -29 -21 -51v-21l14 -34
q25 11 45 38v37q0 19 14 25h14q10 0 13 -28q0 -23 -17 -34q0 -15 35 -38h3q14 54 14 89v21q-32 10 -59 10h-41q0 11 45 17h48l3 -3h4q0 115 -131 227q-75 45 -134 45h-49q-69 -85 -69 -182zM840 638q0 -55 -10 -97h3l10 4q0 -11 -13 -11v-10h13l25 -4l27 100zM857 565h7v-3
l-10 -11h-4zM719 531v-4l25 -3h34q-24 20 -24 27h-4zM819 503q-40 -125 -138 -182q-33 0 -55 -59q72 -45 111 -55q64 107 124 293zM282 238q0 -127 124 -173l58 -6h18l3 -4l3 4h18q112 0 210 120q-91 62 -107 62q-22 -45 -100 -69l-45 -7h-7q-72 12 -72 69q0 21 52 69h3
q48 0 69 -10l4 3h17q31 0 83 18v7q0 74 -87 99l-41 7q-155 0 -203 -165v-24zM902 303q-11 -45 -79 -134q101 -55 169 -55q-87 119 -87 189h-3zM582 283v-4l27 -7v11l4 3l-4 3zM423 272l-10 -31q21 -62 65 -62h10q73 0 111 73q-52 17 -83 17h-69z" />
    <glyph glyph-name="F" unicode="F" horiz-adv-x="1037" 
d="M750 1058h44q85 0 383 -102q51 -13 112 -17q86 0 149 82q14 -5 14 -10q-98 -136 -244 -136h-17l-78 7q-77 -57 -112 -166l-41 -167h4l64 7q54 -7 68 -17l-10 -13l-61 10q-68 0 -68 -24l-48 -183v-24q0 -204 190 -268l34 -6q61 0 61 30l-3 24l3 3h4q27 0 34 -37
q0 -37 -55 -51q-135 0 -244 149q-50 85 -51 119h-3q-111 -227 -350 -227h-54q-154 0 -268 125q-139 135 -139 329v14q0 274 271 403q110 34 153 34q103 112 258 112zM519 946v-3h7q190 0 288 -200q20 -78 27 -85l65 -20q31 135 176 250v4q-99 29 -308 119l-65 10h-37
q-76 0 -153 -75zM495 926q-64 -72 -64 -177q0 -167 159 -223l28 -4h33v4q-20 6 -20 40v7q0 35 48 71h3q-20 -29 -20 -51v-20q11 -41 23 -41q29 13 55 44l-4 31q5 37 24 37l14 -10v-24l-7 -34q10 -24 27 -33h7l10 98q-39 17 -75 17h-40q0 10 44 17h30q24 0 37 -7v3
q0 72 -78 167q-89 88 -234 88zM95 485q0 -198 156 -336v4q-13 31 -13 64q0 96 91 170q-37 64 -37 128q5 79 17 82q15 -7 17 -14q-14 -32 -14 -71q0 -68 38 -112q69 48 135 48h14q129 -20 129 -119q100 49 163 186v7q-35 -20 -68 -20h-21q-17 0 -17 7l-40 -4h-27
q-131 0 -197 170l-10 74q0 78 54 173h-4q-93 0 -234 -115q-88 -108 -88 -132q-44 -85 -44 -190zM838 631v-44l-3 -17l6 -7q-11 -13 -17 -34l38 -3q30 57 30 88zM750 556l-31 -30h41l17 3zM821 509q-50 -142 -142 -194l-61 -27q-58 -101 -112 -101q-26 -14 -58 -14h-7
q-71 11 -71 68q0 26 47 57v-6q-20 -29 -20 -44q21 -61 64 -61h11q86 0 118 98l-17 -4h-57q-98 0 -183 99q-65 -58 -65 -136q0 -124 122 -169q34 -11 78 -11h38q188 0 315 353l37 88zM353 393q65 -88 153 -88h30q58 4 58 14v7q0 73 -85 98l-41 7q-69 0 -115 -38z" />
    <glyph glyph-name="G" unicode="G" horiz-adv-x="1299" 
d="M618 1052h36q189 0 321 -123q94 94 159 94h14q57 0 73 -83v-29q0 -85 -91 -238q74 -178 177 -278q40 -6 40 -15l-7 -7q-59 0 -181 163l-50 101h-4q-15 -31 -65 -94l18 -18h-3l-22 11q-76 -100 -184 -170q14 -33 47 -33q38 0 86 55q-45 0 -57 18h43q42 0 87 32
q46 22 90 22q69 0 101 -33v-3l-43 7h-15q-74 -11 -97 -36q-75 -106 -94 -235v-29q0 -217 202 -285l36 -7q65 0 65 33l-4 25l4 3h4q29 0 36 -39q0 -40 -58 -54q-150 0 -267 169q-40 71 -40 90h-3q-63 -330 -185 -440q-114 -98 -260 -98h-54q-236 0 -379 242q-54 112 -54 228
q0 291 296 415v3q-83 100 -83 239q0 215 220 346q94 51 145 51zM470 843q0 -135 166 -192l58 -3q122 21 122 111v19q0 94 -112 130h-21q-76 -15 -76 -69q0 -12 22 -43v-8q-51 32 -51 69q0 51 76 65h7q90 0 159 -83q24 -39 32 -72h4q20 49 97 144q-132 116 -256 116h-40
q-123 0 -166 -87q-21 -54 -21 -97zM1011 882q101 -162 101 -180h4q72 141 72 234v18q0 47 -40 47h-14q-53 0 -123 -119zM278 629q0 -106 83 -202h4q77 15 115 15h37q130 0 227 -94q56 17 58 25q-25 56 -25 101v40q0 55 25 144h-4q-41 -29 -83 -29h-14q-143 0 -246 159
q-18 61 -18 91q0 36 22 83q-181 -123 -181 -333zM993 850q-112 -225 -123 -304h4q41 26 58 26h21q22 0 65 -15l76 109q-74 152 -101 184zM888 496v-22l11 -40q52 40 105 105v7h-43q-73 0 -73 -50zM1065 518h4l11 -11v-4h-7zM852 485l-7 -79v-11q43 26 47 36q-21 21 -40 54z
M383 402v-4q110 -72 202 -72h54q37 0 80 11v4q-85 79 -195 79h-40q-45 0 -101 -18zM899 312h-11q-29 0 -75 39l-51 -21q80 -91 80 -210q0 -222 -199 -328q-52 -22 -105 -22h-32q-161 0 -228 192l-3 54l14 72h11l4 -4h3l-7 -65q0 -163 155 -220l33 -3h39q139 0 246 173
q36 66 36 137v43q0 94 -76 174q-74 -22 -119 -22h-29q-110 0 -227 90q-286 -118 -286 -407q0 -257 224 -394q75 -40 148 -40h47q233 0 361 434q120 360 206 407l4 4v3q-41 0 -116 -68q-25 -18 -47 -18z" />
    <glyph glyph-name="H" unicode="H" horiz-adv-x="1355" 
d="M669 1052h33q66 0 227 -95q62 -26 107 -26q34 0 209 59h22l7 -8v-7l-7 -7h-15q-169 0 -238 -436v-7q114 30 121 40q23 107 121 264q115 157 234 157q99 -18 99 -80v-4q0 -47 -55 -51q-32 0 -37 91l-14 11h-26q-75 0 -172 -242l-48 -146q56 0 110 -59q-7 -14 -22 -14
q-37 51 -95 51v-4q-73 -291 -73 -311q0 -145 121 -234q18 23 44 87h11q7 0 7 -11q-7 -40 -44 -87v-4q52 -25 102 -33q66 0 66 33l-3 26l3 3h4q29 0 37 -40q0 -40 -59 -55q-73 0 -161 55q-37 -25 -62 -25h-22q-96 0 -140 182l-3 52q0 127 66 355l-118 -29q-9 -142 -99 -315
q-129 -194 -384 -194q-262 0 -411 263q-51 108 -51 224v22q0 262 242 403q134 58 190 58q79 88 176 88zM523 960h44q165 0 282 -194l29 -95l77 -22q52 178 161 271h-3l-92 -14q-88 0 -234 95q-52 25 -88 25h-33q-87 0 -143 -66zM438 763v-26q0 -122 118 -205q46 -26 88 -26
q58 5 58 11q-14 25 -14 44v8q0 38 51 76h4q-22 -31 -22 -54v-22q7 -34 18 -37l33 26l-4 36q0 37 26 37q18 0 18 -33q0 -19 -11 -33q0 -28 44 -44v4q11 59 11 109q0 26 -55 26h-44q0 11 48 18h44v4q0 93 -128 205q-85 55 -202 55h-15q-66 -76 -66 -179zM90 470
q0 -236 198 -381v3q-25 42 -25 92q0 88 84 176q-48 60 -48 154q5 73 18 73h4l7 -7l-7 -92q0 -48 40 -117h4q89 62 165 62h15q93 0 139 -99v-14q109 69 146 179h-3q-14 -7 -40 -7h-22l-37 11q-33 -15 -70 -15h-29q-118 0 -194 161q-19 54 -19 103v3q0 100 55 180h-3
q-149 -33 -238 -125q-140 -143 -140 -340zM878 642v-4l4 -22l-8 -84l19 7l-22 -22v-3h40l37 106zM907 561h8v-3l-11 -11h-4zM761 525v-4l26 -4h18v4q-10 0 -18 18h-4zM860 488q-8 -65 -99 -165l-84 -51q-34 -82 -99 -114q-59 -22 -88 -22h-8q-77 13 -77 74q0 28 48 58
q-53 30 -103 81q-54 -65 -54 -136q0 -134 131 -183q15 -7 41 -7h58q193 0 323 333q51 118 51 132h-40zM372 363v-3q73 -81 151 -81h44q25 0 80 19v3q0 80 -91 106l-44 8q-85 0 -140 -52zM457 265q-22 -32 -22 -48q23 -66 69 -66h11q94 0 129 106v4l-70 -7h-37q-27 0 -80 14
v-3zM1142 147v-62q0 -124 70 -124q28 0 51 22q-98 93 -117 164h-4z" />
    <glyph glyph-name="I" unicode="I" horiz-adv-x="1070" 
d="M1252 1052l4 -4v-7l-64 -38q-98 -69 -169 -297q-42 -163 -42 -208q31 0 120 120l7 -14q-46 -90 -117 -124q-28 0 -28 -53q-42 -172 -95 -254q-28 -25 -28 -38q41 -106 137 -152l78 -21q63 0 63 32l-3 24l3 4h4q28 0 35 -39q0 -38 -56 -53q-160 0 -279 194
q-132 -130 -297 -130h-49q-148 0 -244 95q-176 141 -176 377q0 268 268 424q88 35 159 35h42q121 0 226 -95q109 143 357 204q97 18 144 18zM808 752q16 -23 39 -116l77 -22q86 262 258 410h-4q-165 -32 -257 -113q-104 -109 -113 -159zM84 473v-46q0 -179 163 -324v3
q-15 33 -15 67q0 93 89 173v4q-36 59 -36 106v28q0 26 15 74h10l4 -3h3l-10 -78q0 -49 31 -117q87 53 152 53h14q134 -20 134 -123q121 69 163 190v7q-31 -17 -64 -17h-21q-74 17 -74 63v11q0 37 49 74h4q-21 -31 -21 -53v-21q0 -49 70 -49h32l18 3q-96 82 -96 180v11
q0 54 39 123q-97 95 -226 95q-245 0 -395 -278q-32 -90 -32 -156zM790 734q-22 -57 -25 -84h32l18 -4v11q0 28 -21 77h-4zM762 632v-3q0 -79 39 -110h7l7 103h-4zM847 607l3 -3v-7l-7 -74l4 -4l-7 -7v-14q0 -11 38 -11v4l36 95zM854 537h7v-4l-11 -10h-3zM836 473v-7
l-11 -137v-7h4l39 141zM345 357q62 -95 177 -95h14l67 10v14q0 77 -88 103l-43 7q-63 0 -127 -39zM787 382q-49 -93 -159 -134q-60 -106 -117 -106q-26 -14 -60 -14h-7q-74 11 -74 70q0 23 50 64q-24 0 -89 77h-3q-64 -57 -64 -137q0 -119 110 -170q45 -14 88 -14h49
q169 0 276 208l-4 43l4 99l3 10v4h-3zM423 258q-25 -38 -25 -53q22 -63 67 -63h11q87 0 124 98h-4l-39 -3h-42q-38 0 -92 21z" />
    <glyph glyph-name="J" unicode="J" horiz-adv-x="1128" 
d="M1320 1054l4 -4v-12q0 -6 -50 -23q-95 -52 -156 -225q-85 -255 -85 -326q34 0 124 124l12 -4v-4q0 -47 -117 -132q-43 0 -43 -81l-62 -249q0 -116 105 -220q65 -53 152 -66q70 0 70 35l-4 27l4 4h3q31 0 39 -43q0 -43 -62 -58q-94 0 -202 81q-96 92 -120 174
q-6 -1 -58 -154q-53 -120 -171 -237q-156 -121 -315 -121h-50q-239 0 -388 257q-51 113 -51 228q0 277 268 439q104 54 225 54q211 0 326 -217l8 -23q97 33 97 69h8v-3q-51 -74 -97 -90q15 -58 15 -112q0 -231 -217 -345q-58 -20 -93 -20h-47q-57 0 -116 35v-4
q55 -116 194 -116q44 0 97 15v-7q-94 -31 -144 -31q-134 0 -186 128q-11 65 -31 73q-58 73 -58 159q7 97 19 97l15 -8l-15 -85q0 -86 62 -151q0 118 144 217q57 38 124 43q144 -23 144 -105l4 -23q0 -52 -51 -128h4q120 121 120 256v39l-7 66h-8l-20 -4v4l-4 -4h-3
q-86 11 -86 77q0 26 35 78q-95 97 -237 97q-274 0 -426 -322q-28 -104 -28 -163q0 -255 225 -400q85 -46 167 -46h47q176 0 299 182h-4l-27 -15h-8q71 45 81 93q94 176 206 593l-4 -4h-58l-128 16h-8l-4 4l-73 -16q32 39 108 39h24l3 -4l4 4l59 -8h3v4q-116 74 -116 198
q0 259 427 377q72 19 163 27zM808 588q0 -103 81 -132q15 -8 43 -8q102 402 307 575h-4q-115 -16 -241 -105q-186 -152 -186 -330zM629 390l-8 -46v-4q0 -66 74 -66h8q-20 60 -74 116zM252 -95l4 -15l-4 -4q0 -68 136 -82h24l73 12v4h-4l-35 -4q-73 15 -73 66v4q0 24 39 66
h3v-4l-15 -46q0 -46 81 -66q73 0 121 93l11 54q0 83 -73 120l-82 12q-84 0 -163 -98q-43 -68 -43 -112zM509 -168v-4h3q44 21 55 35z" />
    <glyph glyph-name="K" unicode="K" horiz-adv-x="1280" 
d="M711 1048h40q114 0 279 -149q31 -25 47 -25q79 91 138 91h25q40 0 51 -44q-24 -91 -120 -91h-29q-30 0 -47 8q-72 -137 -72 -200q-59 -264 -95 -359q-125 -290 -388 -290h-50q-239 0 -388 265q-44 102 -44 214v3q0 299 287 436q61 21 141 32q99 109 225 109zM515 939h29
q204 0 301 -236q6 -43 29 -43q27 68 36 72q8 0 8 -10q0 -17 -22 -69l47 -15v4q31 99 94 185q7 1 22 29q-12 0 -239 134q-49 25 -95 25h-43q-90 0 -167 -76zM1451 972h29q65 -8 65 -58q0 -44 -58 -51q-17 1 -69 62h-14q-88 0 -171 -272q-38 -87 -112 -124h-4q80 -70 80 -181
q0 -63 -22 -185q0 -57 87 -149q61 -49 142 -61q65 0 65 33l-4 25l4 3h3q29 0 37 -39q0 -40 -58 -55q-139 0 -254 149l-22 40h-4l-3 -37q0 -108 61 -108h22l36 7l4 -3v-11q0 -17 -94 -33h-22q-78 0 -109 123l-3 33q0 32 47 315l3 26q0 43 -25 101l-18 -4h-15q-47 6 -47 33
q7 17 15 18h18q28 0 54 -25q64 20 105 91q83 262 146 293q54 44 105 44zM1106 856l26 -4h39q95 13 95 58v18l-15 15h-32q-56 0 -113 -87zM490 914q-55 -86 -55 -167q0 -170 171 -243l36 -4h47l18 4q-14 25 -14 43v8q0 38 50 76h4q-22 -32 -22 -55v-21q7 -37 22 -37
q34 10 91 73v25q0 27 -11 29h-65q0 11 47 19h22v3q0 76 -106 185q-89 62 -177 62h-58zM87 457q0 -257 229 -403h3q-47 52 -47 120q0 78 69 159v8q-47 52 -47 127q5 101 18 101l14 -7q-10 -43 -10 -80v-25q0 -62 43 -109q95 73 178 73h14q88 0 134 -91l4 -15q101 82 120 156
l3 4v4h-43l-40 10q-24 -10 -51 -10h-36q-123 0 -207 163q-18 49 -18 105v4q0 70 44 159h-4q-104 0 -236 -123q-134 -151 -134 -330zM885 627q-29 -41 -29 -116h4l36 15l-47 -37q-30 -119 -116 -192q-50 -25 -66 -65q-53 -87 -101 -87q0 -10 -69 -18h-7q-77 12 -77 72
q0 19 37 55v3q-28 0 -98 66q-47 -47 -47 -120q0 -133 130 -181l29 -8h51q251 0 392 530l25 65zM776 508v-4h47l8 43h-4zM363 337q74 -72 152 -72h36q42 0 102 25q0 78 -91 105l-43 7q-92 0 -156 -65zM566 239h-37l-68 11q-19 -30 -19 -43q23 -66 69 -66h11q94 0 131 113h-4
q-34 -15 -83 -15z" />
    <glyph glyph-name="L" unicode="L" horiz-adv-x="1157" 
d="M644 1052h45q118 0 238 -94q64 63 122 63q65 0 95 -88q10 -25 10 -70v-17q0 -265 -259 -492q-50 -38 -115 -70q0 -144 119 -231l10 -3q110 0 172 77q14 23 14 49q0 13 -56 48l-11 42q11 56 49 56h14q46 -11 46 -73q0 -136 -144 -234l18 -4q63 0 63 32l-4 24l4 4h3
q28 0 35 -39q0 -38 -56 -52q-33 0 -101 21l-42 -7h-35q-78 0 -234 115q-122 -108 -283 -108q-154 8 -164 28q-98 47 -98 150q0 153 196 227q-67 100 -67 227v10q0 225 227 360q95 49 189 49zM260 605q0 -102 56 -192l35 3h17q133 -23 133 -115v-17l-4 -4v-3l81 -11h55
q28 37 109 325v7h-4q-85 35 -125 35h-42q0 10 45 17h31q32 0 105 -27q0 39 84 223l70 101q-106 84 -210 84h-45q-194 0 -335 -216q-56 -98 -56 -210zM951 926q46 -60 77 -122l-10 -7h-7q-56 92 -74 108q-62 -148 -97 -296h7l35 7v-4l-49 -31l-7 -32q102 114 150 115l3 -3v-4
q0 -6 -42 -17q-142 -156 -153 -269l-4 -28v-35h4q195 92 300 363q32 101 32 206v4q0 119 -67 119q-40 0 -98 -74zM553 619h4q-21 -30 -21 -52v-21q0 -49 70 -49h21q29 0 73 21q-48 -46 -101 -46h-21q-74 17 -74 63v11q0 36 49 73zM714 539h7v-4l-11 -10h-3zM326 399
q65 -80 133 -108h7v3q0 71 -81 95l-45 10h-14zM130 207q0 -118 109 -168q-53 46 -53 98q0 72 98 126l4 -4h3l63 11q57 -6 108 -25l4 18v3q-84 28 -164 130q-57 0 -126 -70q-46 -53 -46 -119zM745 259q-21 -60 -87 -136q134 -70 213 -70h4v4q-51 36 -91 112q-21 40 -35 90h-4
zM490 256l-7 -21l116 -63l34 70h-10q-73 0 -133 14zM263 210q22 -62 67 -62h10q78 0 112 76v4q-45 17 -81 17h-34q-74 -5 -74 -35zM469 217q-37 -56 -98 -73l-55 -10h-7q-74 12 -74 66q-24 -24 -24 -52v-25q0 -63 108 -94l32 -4h10l3 -3l4 3h17q110 0 200 126
q-43 32 -116 66z" />
    <glyph glyph-name="M" unicode="M" horiz-adv-x="1360" 
d="M710 1048h53q207 0 279 -193q36 -124 36 -190h4l32 11l3 -4v-3q0 -9 -39 -14l4 -36v-115h3q60 121 154 236q129 128 225 151l50 10l4 -3v-4l-86 -43q-78 -71 -129 -239q-72 -240 -75 -311v-29q0 -175 140 -258l14 15h4l10 -11l-10 -14l78 -21q65 0 65 31l-4 25l4 4h3
q29 0 36 -39q0 -39 -57 -54q-58 0 -136 40q-41 -29 -68 -29h-29q-131 0 -161 211v18q0 222 154 540l18 25v3q-97 -93 -164 -225l-111 -193h-4v236h-3q-98 -160 -193 -394q-110 -189 -304 -189h-25q-176 15 -176 36q-43 15 -164 157q-86 132 -86 286q0 286 286 429
q83 29 140 29q97 118 225 118zM513 926h29q182 0 282 -200l29 -82h3q12 0 36 79h11l7 -8l-29 -82l40 -11l64 176q-30 109 -111 175q-74 46 -136 46h-43q-98 0 -182 -93zM438 748v-33q0 -131 139 -203q35 -15 79 -15q-25 21 -25 50v7q0 38 50 76h4q-22 -32 -22 -54v-22
q0 -46 54 -46q47 13 107 82v36q-50 18 -82 18h-43q0 11 47 18h32l43 -7q0 94 -126 207q-79 47 -153 47h-25q-62 0 -79 -161zM88 476v-18l-4 -4l4 -3v-29q0 -154 135 -297l-7 54q0 97 100 186q-22 43 -28 118q9 79 18 79h7l7 -8l-7 -68q0 -71 28 -107q78 43 136 43h15
q136 -24 136 -118v-18h3q122 54 183 204l3 22q-49 -33 -89 -33h-29l-4 4l-3 -4h-54q-131 0 -204 154q-14 26 -21 104q0 83 50 161v3h-4q-101 -12 -203 -89q-168 -150 -168 -336zM989 755q-47 -118 -47 -136h40l25 3q0 60 -15 133h-3zM942 594h-7l-25 -115v-3h4q26 61 93 132
v4q-32 -18 -65 -18zM864 608q-15 -21 -15 -32v-11l4 -25q-7 0 -18 -75q-49 -138 -154 -197l-71 -28q-57 -90 -104 -90q0 -9 -68 -18h-7q-75 12 -75 72q0 28 50 61v-7q-22 -31 -22 -47q23 -64 68 -64h11q82 0 122 89h-65q-52 0 -111 32l-3 -3q0 9 -18 18q-31 26 -68 71
q-71 -62 -71 -146q0 -132 128 -179q49 -15 90 -15h21q277 0 411 548q11 12 11 35zM763 508v-4h8q53 0 53 47q-50 -43 -61 -43zM341 372q69 -104 172 -104h36l43 4v21q0 78 -90 104l-43 7q-57 0 -118 -32zM1210 186l-3 -39q0 -113 50 -147q18 -10 36 -10h28l32 10v7
q-80 41 -139 179h-4z" />
    <glyph glyph-name="N" unicode="N" horiz-adv-x="1360" 
d="M789 1052h44q176 0 310 -190q100 69 165 69l7 -10q0 -11 -66 -22q-46 -12 -98 -59q51 -56 51 -424v-84h4q130 430 222 545q76 91 136 91h14q55 -8 55 -44v-7q-6 -40 -40 -40h-7q-27 0 -63 36q-125 0 -288 -584q-33 -56 -33 -70v-14q0 -214 194 -285h7l36 30l19 -8v-7
l-19 -22v-4q70 0 70 33l-4 25l4 4h3q30 0 37 -40q0 -40 -58 -55q-43 0 -88 19q-18 -11 -48 -11h-29q-175 0 -223 266q-7 32 -7 88v25l18 398l-7 95q-83 -103 -113 -259q-57 -243 -110 -347q-125 -193 -332 -193h-52q-246 0 -394 262q-44 105 -44 216q0 256 234 409
q100 62 241 62l18 -4q98 110 234 110zM581 942q89 0 204 -102q67 -77 88 -164l62 -15v4q17 51 22 51h7l8 -7l-19 -55l44 -11v4q22 82 103 179q-77 204 -267 204h-40q-111 0 -212 -88zM559 924q-70 -99 -70 -186v-29q0 -139 154 -212l51 -8h29l37 4v7q-49 0 -59 63v7
q0 38 52 77h3q-22 -32 -22 -55v-22q0 -51 73 -51h11q37 9 37 80l-4 59l-25 3h-55q0 11 47 18h26v4q-33 120 -102 164q-100 77 -183 77zM91 449q0 -262 241 -391q-54 55 -54 128t62 154q-41 63 -41 146q7 78 19 80h7l7 -7q-11 -39 -11 -66v-7q0 -66 33 -128h8q95 77 182 77
h15q139 -23 139 -125q89 54 139 187h-8q-56 -29 -106 -29h-29q-154 0 -223 197l-3 55v14q0 77 62 187h-11q-204 0 -351 -209q-77 -116 -77 -263zM877 650v-3l3 -77h4l37 66h-4zM942 625q-20 -42 -62 -92v-3l26 11q-37 -27 -37 -41q-37 -135 -127 -208q-63 -37 -63 -44
q-58 -91 -106 -91q0 -9 -69 -18h-7q-77 12 -77 73q0 16 26 44q-31 0 -99 73q-37 -56 -37 -113q0 -138 139 -187q44 -11 81 -11h18q199 0 303 205q51 132 132 391h-4zM921 563h7v-4l-11 -11h-4zM365 347q30 -51 103 -77l3 4q0 -15 51 -15h37q42 0 102 26v18q0 79 -91 106
l-44 7q-95 0 -161 -69zM460 248q-11 -15 -11 -29q23 -66 70 -66h11q84 0 124 92h-4q-38 -11 -77 -11h-40q-37 0 -73 14zM1220 88v-4q45 -135 124 -135h22v4q-97 45 -142 135h-4z" />
    <glyph glyph-name="O" unicode="O" horiz-adv-x="1039" 
d="M496 1055h46q135 0 256 -111q79 52 118 52q76 0 90 -104v-38q41 -39 41 -142q0 -187 -138 -468q0 -175 177 -255l52 -11q62 0 62 31l-4 24l4 4h3q28 0 35 -38q0 -38 -55 -52q-133 0 -243 142q-55 92 -55 114h-4q-42 -106 -142 -180q22 -74 125 -152v-4l-7 -7h-4
q-91 50 -138 149q-18 -10 -35 -10h-17q-138 0 -177 235v31h-45q-205 0 -319 232q-24 74 -24 146v10q0 237 253 371q65 31 145 31zM531 1031v-4q42 -14 101 -83h-4q-88 73 -159 73q-116 0 -173 -125q-7 -13 -7 -38v-38q0 -91 93 -156q52 -24 97 -24q90 37 90 121v24
q0 65 -79 97h-4q-69 0 -69 -52q0 -17 -7 -17h-4l-7 55q19 46 59 46h4q65 0 118 -122l3 -41v-21q0 -80 -62 -111q-14 -7 -38 -7h-4q-138 0 -194 173q-10 37 -10 73q0 47 17 94q-166 -134 -166 -309v-20q0 -201 201 -309q62 -24 104 -24h20q-41 38 -41 55h3q44 -42 73 -45v4
q0 58 21 138l-38 11q-43 0 -59 -76v-11h-7l-4 52q0 46 52 66l63 -10q60 220 187 374l-24 48l31 -38l76 76q-105 101 -225 101h-28zM826 913l48 -69q44 31 73 31l35 -7v24q0 75 -66 87q-90 -26 -90 -66zM808 899q-66 -107 -66 -125q14 -46 14 -110h4q15 53 93 155l-38 80h-7z
M878 823q20 -46 48 -180h4q52 145 52 201q-20 10 -39 10q-26 0 -65 -31zM1002 819q0 -46 -72 -225l-18 -249v-7h4q104 295 104 426l-11 55h-7zM853 792q-111 -147 -111 -267l-31 -149h4q142 107 187 222v73l-35 114zM725 750q-121 -320 -121 -391l-14 -45h4q83 22 83 48
l48 277l7 87l-3 24h-4zM891 539q0 -31 -159 -177q-31 -10 -31 -52l-7 -34q0 -133 35 -236h3q88 78 121 159l21 45l-3 32q0 96 24 259v4h-4zM583 262q87 -41 87 -94h-7q-23 43 -83 63v-4l-4 -52q0 -129 63 -152l13 -4h21q35 5 35 14l-35 121h4l-14 90l7 77q-83 -32 -83 -42z
" />
    <glyph glyph-name="P" unicode="P" horiz-adv-x="1161" 
d="M733 1052h48q172 0 319 -142q65 38 118 38h38l10 -10l-10 -11h-45q-48 0 -87 -34v-4q90 -110 90 -228v-14q0 -167 -138 -235l-42 -7q-53 0 -80 52h-3q-17 -112 -55 -197q0 -65 79 -163q72 -57 146 -66q62 0 62 31l-4 25l4 3h3q28 0 35 -38q0 -38 -55 -52q-139 0 -250 152
q-34 59 -34 69h-7q-66 -127 -201 -179q-81 -28 -145 -28h-14q-170 0 -197 38q-163 79 -239 277q-21 89 -21 149v13q0 299 315 423q76 14 111 51q117 87 249 87zM484 934h41q176 0 281 -187q20 -48 31 -103h7q34 76 34 142l-10 96h10q15 0 21 -100l-3 -31q17 -50 17 -111h3
q19 100 167 263q-136 128 -298 128h-62q-135 0 -239 -97zM383 747v-34q0 -140 167 -208l65 -7l45 4q-14 24 -14 41v7q0 36 49 73h3q-20 -30 -20 -52v-21q6 -32 17 -34q35 0 118 86v24q-33 11 -59 11h-42q0 10 45 17h49q0 102 -118 204q-79 56 -187 56q-59 0 -80 -49
q-38 -61 -38 -118zM86 467q0 -210 173 -356h3q-17 41 -17 76q0 95 86 166q-45 66 -45 128v31q3 59 18 59h7l7 -7q-7 -11 -14 -69q0 -76 45 -125q85 52 149 52h13q89 0 132 -93v-14q106 62 145 173q-22 -10 -48 -10h-21l-38 10l-52 -7h-38q-113 0 -197 121q-35 58 -35 114v38
q0 72 59 146h-3q-171 -55 -257 -187q-72 -117 -72 -246zM989 619q43 32 73 35l7 -7q23 21 45 21l3 -4v-3q0 -7 -41 -17q-106 -115 -108 -153q8 -55 42 -55h17q66 0 114 225l4 48q0 85 -45 167q-53 -50 -83 -160zM882 692q0 -12 -21 -55l21 -7l3 24v38h-3zM1020 616
q-35 -28 -38 -38v-4l42 42h-4zM844 609l-7 -10v-4l-7 -76l3 4h7q-15 -8 -34 -84q-65 -123 -160 -159q-7 -3 -27 -48q-66 -90 -159 -90h-7q-73 11 -73 69q0 27 48 59v-7q-20 -30 -20 -45q21 -62 65 -62h11q89 0 124 107v3l-52 -6h-45q-95 0 -176 90q-59 -64 -59 -135
q0 -128 121 -170q15 -7 56 -7h41q133 0 246 156q66 99 131 335l7 73l-34 11v-4zM726 502h52q25 0 31 66q-29 -29 -83 -66zM854 543h7v-3l-10 -11h-4zM352 360q72 -76 153 -76h34q30 0 69 14q0 75 -86 100l-42 7q-75 0 -128 -45z" />
    <glyph glyph-name="Q" unicode="Q" horiz-adv-x="1084" 
d="M506 1048h37q137 0 260 -109h4q60 51 116 51h3q72 0 86 -106v-17l-3 -24q41 -44 41 -140v-11q0 -198 -144 -472v-7q0 -64 85 -154q57 -46 134 -58q48 0 48 31q10 6 10 24l10 3l14 -3l3 3h4q58 -10 58 -81q0 -132 -123 -175q-14 -7 -38 -7h-34q-115 0 -178 168
q0 39 -51 160q-95 -126 -171 -126q-126 0 -175 191l-3 4l3 3l-7 62h-20v-4l13 -44h-3q-34 35 -34 48q-206 0 -322 232q-34 138 -34 189h3l-3 3v3q16 81 96 202q142 161 315 161zM184 819h3q39 20 82 20q45 0 113 -17v-7l-65 7q-126 0 -174 -99q-14 -65 -14 -127
q21 -72 86 -116q51 -28 92 -31q127 13 127 72q7 0 10 45q-23 130 -123 130q-69 -18 -69 -58l17 -48h-3q-34 25 -41 61q0 49 75 62q41 0 120 -52q55 -75 55 -126q0 -86 -130 -106h-7q-102 0 -202 116q4 -73 110 -188q99 -75 201 -75v7q0 41 52 58q2 83 96 308
q-44 91 -148 136v7h4q62 -15 161 -119q51 98 174 249v4q-122 95 -229 95h-45q-188 0 -328 -208zM824 911l48 -79q47 35 75 35h7q16 0 34 -11v28q0 69 -58 85h-17q-31 0 -89 -58zM810 891q-125 -226 -144 -322l35 -85h3q42 202 154 331q-28 55 -48 76zM882 809
q27 -65 38 -199h3q65 175 65 226q-18 10 -34 10h-17q-26 0 -55 -37zM1005 809q-6 -80 -89 -267l-17 -250v-7h3q120 340 120 469l-10 55h-7zM718 439l17 -58q117 86 150 171l7 103v10q0 34 -24 126q-118 -144 -150 -345v-7zM649 521l-44 -198l17 -10q58 25 58 34l10 72
q-29 93 -41 102zM745 357q61 -171 96 -171l10 -7l24 45q-10 29 -14 75l14 188q-52 -62 -130 -130zM714 340q-13 -13 -13 -45v-24l-7 -6h-7q-5 0 -10 13l3 31v4q-17 0 -41 -21l21 -21v-3h-4q-19 24 -27 24q-41 -9 -41 -48l-4 -44v-7h4l133 24l62 -7q-34 49 -65 130h-4z
M601 313v-11l11 4v3zM478 292v-10h14v27zM625 124l-10 11l31 41l-62 -11v-10q0 -116 76 -133h30q73 0 141 126v4q-32 37 -106 37q-46 0 -100 -65zM885 189l-10 -20v-4q46 -41 134 -239q62 -92 140 -92q68 0 82 79q0 23 -51 44l-11 14q-137 0 -246 150q-34 58 -34 68h-4z" />
    <glyph glyph-name="R" unicode="R" horiz-adv-x="1241" 
d="M740 1042h52q154 0 321 -130h4q40 31 88 31h31q27 0 32 -14v-3l-3 -4v-3l-60 3h-7q-34 0 -71 -32q92 -97 92 -190v-24q0 -135 -124 -180h-3q56 -61 56 -131l-7 -109v-7q0 -121 78 -211l3 3h4l10 -10l-3 -4v-3q73 -51 141 -60q63 0 63 32l-3 24l3 4h4q28 0 35 -39
q0 -38 -56 -53q-86 0 -184 74q0 7 -14 7q-37 -49 -91 -49h-21q-83 0 -103 123v18q0 80 78 320v7q-7 57 -49 57q-39 5 -39 17v7q0 11 28 15l46 -18q77 82 77 194v21q0 81 -42 148h-3q-67 -66 -113 -236q-43 -258 -71 -346q-36 -98 -127 -186q-121 -106 -264 -106h-46
q-228 0 -377 254q-49 110 -49 222q0 272 275 419l127 32q123 116 282 116zM486 926h46q188 0 282 -201l24 -74l14 -4q29 72 29 134l-15 92l18 3q21 -46 21 -88v-28q0 -42 -32 -123l46 -11q26 112 152 250l17 18q-148 127 -292 127h-53q-137 0 -257 -95zM387 718
q0 -149 162 -215l50 -7h45l25 3v4q-21 7 -21 42v7q0 37 49 74h4q-21 -30 -21 -53v-21q11 -42 24 -42q50 15 117 81v32q0 14 -64 17h-42q0 11 46 18h53q-31 125 -106 180q-87 67 -187 67h-56q-78 -83 -78 -187zM84 457q0 -213 173 -356v4q-18 42 -18 77q0 91 85 169
q-39 66 -39 131q8 81 18 81h14l-11 -85q17 -113 39 -113q78 57 151 57h15q133 -24 133 -116h4q109 66 148 183l-53 -11h-21l-25 7l-56 -10h-39q-152 0 -225 179l-11 71q6 89 60 173h-4q-143 -38 -218 -134q-120 -144 -120 -307zM835 520l3 4h7q-15 -10 -21 -56
q-40 -112 -127 -173l-63 -39q-60 -106 -116 -106q-27 -14 -60 -14h-7q-74 12 -74 71q0 27 45 56q-55 35 -95 81q-56 -63 -56 -134q0 -134 141 -183l42 -3h39q247 0 377 472q32 76 32 102l-43 14q-16 0 -24 -92zM743 506v-3h35q36 0 36 46v3h-4q-40 -35 -67 -46zM859 545h7
v-3l-10 -11h-4zM348 358q68 -88 152 -88h42q23 0 67 14v11q0 76 -88 102l-42 7q-77 0 -131 -46zM426 260q-21 -30 -21 -46q22 -64 67 -64h10q90 0 124 103l-50 -7h-42q-29 0 -88 17v-3zM1117 186q-18 -74 -22 -127q7 -63 43 -63h24q24 0 50 31q-74 88 -92 159h-3z" />
    <glyph glyph-name="S" unicode="S" horiz-adv-x="1019" 
d="M685 1048h34q107 0 220 -120l-11 -10h-3q-120 109 -202 109h-35q-116 0 -198 -123h37q164 0 275 -199q18 -82 27 -82l38 -10q68 325 199 325h10q51 0 65 -79v-27q0 -115 -154 -254q-45 -29 -45 -41q0 -279 -116 -415q39 -91 116 -126q35 -20 86 -28q62 0 62 31l-4 24l4 3
h3q27 0 34 -37q0 -38 -55 -52q-147 0 -260 171q-118 -112 -271 -112h-55q-136 0 -202 58q-223 140 -223 394v27q0 240 247 388q105 42 154 44q105 141 223 141zM942 592h24q144 130 144 274q0 52 -34 52h-17q-95 0 -117 -319v-7zM469 880q-27 -63 -27 -117v-3
q0 -178 195 -243v13q0 36 48 72h3q-20 -30 -20 -51v-21l7 -24h75q38 0 38 17l7 86h-4l-48 7h-41q0 10 45 17h48v7q0 98 -131 195q-72 45 -137 45h-58zM88 451v-27q0 -186 162 -326h3v4q-14 40 -14 68q0 88 83 165q-42 65 -42 137q0 45 24 79l11 -10l-11 -79q0 -53 35 -114
q84 55 151 55h13q131 -22 131 -113q97 55 147 178h-3q-23 -10 -48 -10h-21q-21 0 -69 35q-130 39 -185 130q-37 60 -37 130v24q0 39 24 100h-4q-118 -27 -192 -93q-158 -143 -158 -333zM826 595v-78q11 0 24 10l3 -4l10 59zM819 493l-14 -169v-6l-3 -4v-3h6q25 88 42 192h-4
zM716 486v-4h62v4h-62zM346 342q69 -83 144 -83h37q30 0 72 14v7q0 74 -85 99l-42 7q-74 0 -126 -44zM764 369q-39 -78 -137 -117q-31 -76 -93 -106q-55 -20 -82 -20h-7q-72 11 -72 68q0 27 48 58v-6q-21 -30 -21 -45q22 -62 66 -62h10q89 0 123 107l-48 -7h-48
q-37 0 -79 17l-3 -4q-52 32 -96 76q-55 -62 -55 -130q0 -126 124 -172l68 -7h38q181 0 271 199l-7 48l3 96v7h-3z" />
    <glyph glyph-name="T" unicode="T" horiz-adv-x="1039" 
d="M763 1052h36q69 0 405 -108q87 -17 129 -17h15q85 0 157 89l11 -3q-36 -89 -161 -140q-65 -18 -115 -18l-97 14q-91 -98 -114 -229q-58 -339 -162 -484q37 -98 101 -133q38 -29 114 -42q65 0 65 32l-4 25l4 3h3q29 0 36 -39q0 -39 -57 -54q-158 0 -280 190
q-114 -139 -297 -139h-50q-137 0 -215 67q-219 158 -219 416v7q0 285 283 420q56 24 169 43q96 100 243 100zM545 948q141 0 261 -129q65 -112 65 -165l18 -7l32 90q18 -5 18 -11l-25 -86l36 -11q34 133 168 244v3q-92 26 -279 111q-51 22 -126 29q-99 0 -168 -68zM97 461
q0 -209 168 -352v4q-14 33 -14 68q0 96 93 179q-39 62 -39 118v36q0 39 14 68q18 -4 18 -10l-11 -72v-18q0 -47 32 -111q89 54 154 54h15q136 -23 136 -122q116 65 158 179l3 14h-3q-25 -13 -137 -25h-28q-132 0 -208 165q-17 59 -18 104q0 101 61 187h-4q-97 -13 -204 -86
q-186 -154 -186 -380zM452 740q0 -180 172 -244l50 -3h32v3q-39 11 -39 54v7q0 38 50 76h3q-21 -32 -21 -54v-22q0 -39 54 -50q82 38 82 83l4 46q-34 11 -61 11h-43q0 11 46 18h50l4 -4h4v29q0 69 -104 172q-94 65 -197 65h-15q-71 -71 -71 -187zM896 615q-25 -50 -25 -79
l3 -4q-15 0 -25 -183v-7h4l86 258zM882 550h7v-3l-11 -11h-4zM803 507h3q22 0 22 18q-25 -12 -25 -18zM365 367q67 -93 162 -93h11l3 -3l4 3h18l64 11v11q0 77 -89 104l-43 7q-65 0 -130 -40zM473 134h-7q-75 12 -75 72q0 28 50 61v-7q-22 -31 -22 -47q23 -64 68 -64h11
q92 0 126 104v3l-43 -3h-43q-106 0 -190 100q-65 -67 -65 -143q0 -121 111 -172q41 -15 86 -15h40q177 0 290 226l-4 47l4 86q-67 -82 -136 -111q-21 0 -36 -43q-68 -94 -165 -94z" />
    <glyph glyph-name="U" unicode="U" horiz-adv-x="1273" 
d="M532 1058h46q199 0 322 -191q33 -71 33 -141v-16q0 -84 -72 -243h3l56 19q-15 -19 -73 -42q-131 -300 -131 -316v-26q0 -20 20 -29h26q65 43 95 118q68 133 194 470q134 236 282 236h20q79 -11 79 -56v-20q-4 -32 -33 -32h-23q-17 0 -20 72l-16 13h-30q-135 0 -279 -565
q-29 -80 -29 -108q28 -102 88 -148l23 -13l37 62l16 -10l-36 -62q33 -19 82 -26q59 0 59 29l-3 23l3 3h3q27 0 33 -36q0 -35 -52 -49q-66 0 -138 46q-28 -36 -63 -36h-23q-80 0 -118 151l-3 46v30q-99 -161 -155 -161l-72 -23v6l43 17v3q-33 0 -66 85l-3 17q-62 -30 -99 -30
h-6q-69 11 -69 66q0 25 46 56v-7q-20 -28 -20 -43q21 -59 63 -59h9q36 0 76 27v9q0 55 33 142v3q-10 21 -36 33q-98 -92 -214 -92h-39q-13 -4 -17 -66q0 -123 125 -167q39 -10 72 -10h30v-7l-49 -3h-43q-102 0 -154 105q-10 33 -10 56q0 29 23 95h-4q-96 0 -210 125
q-72 98 -72 227q0 245 269 404q98 39 171 39zM125 615v-20q0 -174 157 -279q64 -37 112 -37q45 73 155 106l46 6h13l49 -10q35 50 43 50l13 -10l-36 -50l29 -23l53 115q-23 11 -23 43v7q0 34 46 69h3q-20 -29 -20 -50v-19l7 -23q8 0 52 105h-26q0 5 36 20q36 100 36 154
q0 147 -138 223q-35 10 -59 10q-105 0 -157 -102q-17 -31 -17 -69v-16q0 -124 132 -168l13 -3q92 33 92 69q16 20 16 56v7q-11 95 -79 95h-6q-37 0 -50 -43v-10h-6v13q0 73 59 73t95 -132q-19 -157 -115 -157h-3q-61 0 -115 69q-43 79 -43 141h4l-4 3q0 144 128 204h10v3
l-32 3h-60q-223 0 -374 -253q-36 -89 -36 -170zM933 506h6v-3l-9 -10h-4zM411 283v-4h29q104 0 194 83l-56 13q-106 0 -167 -92zM992 161l-7 -62q9 -92 50 -92h19q28 0 46 23q-64 50 -108 131z" />
    <glyph glyph-name="V" unicode="V" horiz-adv-x="1126" 
d="M568 1052h45q193 0 300 -174q45 -86 45 -185q0 -77 -28 -181l4 -3v-4q-25 -58 -63 -303l21 -76h3q0 50 126 341q108 219 258 383q157 146 250 146h25q52 -5 52 -48q-14 -53 -49 -53h-14q-22 0 -59 49l-17 4q-60 0 -199 -147q-271 -324 -355 -710q35 -70 136 -108l48 -10
q63 0 63 31l-3 24l3 4h4q27 0 34 -38q0 -39 -55 -53q-121 0 -237 129q-6 -59 -28 -59q-25 32 -45 83q-113 -76 -150 -76v7q68 15 139 94q-24 69 -24 128v25q0 70 28 188l-32 3q-14 -62 -69 -128q10 -17 10 -46q0 -73 -87 -139q-62 -28 -98 -28h-7q-73 12 -73 70l4 17h-39
q-44 0 -69 11v-14q0 -133 111 -181q51 -18 98 -18h31v-7l-52 -3h-45q-109 0 -164 111q-11 35 -11 59l11 60q-49 0 -157 104q-87 112 -87 240v18q0 271 300 428q95 35 167 35zM132 582q0 -232 209 -335l11 -3q37 92 153 143q52 17 84 17h14q51 0 108 -49q58 67 62 119
q-34 14 -34 52v7q0 32 45 73l-18 59h-7q-28 -73 -97 -73h-4q-47 0 -108 53q-37 48 -55 135h-7q-38 -20 -70 -48l-7 10v7q26 28 80 56l4 10l-4 4q0 127 101 198l25 11v3h-53q-211 0 -362 -212q-70 -111 -70 -237zM502 822v-14h3l52 11h39l24 -4v7q0 77 63 77t101 -140
l-11 -62l32 -73q27 14 45 14h10q11 64 11 114v42q0 127 -122 199q-37 10 -63 10q-112 0 -167 -108q-17 -33 -17 -73zM631 812q98 -36 128 -98h4l7 42v7q-11 101 -84 101h-7q-48 0 -48 -52zM502 787q32 -118 62 -118q0 -19 91 -45q62 16 91 55l3 4v10q-75 105 -160 105h-32z
M801 617q7 -15 7 -60q0 -44 -7 -66l28 -7l28 136h-49l-3 -3h-4zM770 554v-21l10 -31h4l3 42v52q-17 -15 -17 -42zM948 526h7v-3l-11 -11h-3zM369 237l66 -7h56l28 21v-7l-7 -10h4q77 7 174 97q-57 56 -119 56q-145 0 -202 -150zM693 303q-78 -74 -188 -94h-7v-3
q0 -60 77 -70q90 0 125 108v52zM867 136v-7l7 -66q7 0 14 38l-17 35h-4z" />
    <glyph glyph-name="W" unicode="W" horiz-adv-x="1388" 
d="M555 1052h39q204 0 315 -199q32 -71 32 -145v-11q0 -75 -21 -195l25 11l-29 -25q-60 -287 -60 -379v-22l7 -53h4q24 198 241 607q32 56 39 56q14 -5 14 -10q-88 -501 -88 -571q6 -77 17 -78q43 199 131 397q86 187 199 330q173 216 319 216q64 -10 64 -46q0 -46 -64 -53
q-24 0 -60 49l-14 4q-105 0 -319 -309q-211 -381 -242 -624q85 -53 132 -53q63 0 63 32l-3 25l3 3h4q28 0 35 -38q0 -39 -56 -54q-78 0 -185 71q-26 8 -74 152q-11 49 -14 110q0 96 42 242v3h-3q-135 -289 -135 -347q-21 -73 -36 -156l-3 -4h-7q-11 0 -46 89h-4
q-71 -48 -127 -61v7q24 0 120 68q-25 93 -25 145v29q0 77 32 202l-25 7q-19 -89 -60 -135q11 -17 11 -46q0 -75 -89 -142q-63 -28 -99 -28h-7q-75 13 -75 67h-32q-41 0 -74 11v-7q0 -129 135 -178q42 -10 78 -10h32v-7l-54 -3h-46q-110 0 -166 113q-11 35 -11 60l3 42
q-98 33 -170 142q-60 96 -60 217v7q0 274 284 440q93 35 163 35zM140 566q0 -233 195 -333l11 -4v4q39 101 141 149q58 28 107 28h14q52 0 110 -50q50 71 50 132q-22 6 -22 42v7q0 25 22 50q0 88 -114 177q-44 18 -71 18h-25q-56 0 -141 -64l-8 11v3q68 68 142 68h36
q112 0 188 -153l14 -39l3 4h7l-7 -7l4 -71v-36l25 -7l28 135h-35q0 5 39 21q10 59 10 107v7q0 197 -198 259l-68 7h-49q-204 0 -355 -238q-53 -109 -53 -227zM959 534h7v-3l-10 -11h-4zM370 226q0 -13 78 -15h32q0 14 43 43v-7l-18 -29v-3q74 0 188 106l4 4v7q0 25 -93 57
l-28 3q-154 0 -206 -159v-7zM700 304q-40 -50 -103 -82q-52 -22 -92 -28q0 -43 71 -57h4q92 0 127 110v57h-7z" />
    <glyph glyph-name="X" unicode="X" horiz-adv-x="1299" 
d="M740 1052h36q210 0 303 -222q22 -84 22 -139h3q167 265 325 265q79 -16 79 -61v-14q-8 -58 -54 -58h-7q-39 6 -39 40v50q0 8 -18 10q-85 0 -218 -160l-71 -122l-18 -421l-4 -36q0 -127 154 -210q34 10 79 53l14 -11q-43 -50 -57 -50v-3l35 -7q65 0 65 32l-4 24l4 4h3
q29 0 36 -39q0 -39 -57 -54q-53 0 -111 29l-25 -3h-32q-159 0 -204 228l-3 46l18 243q-40 -56 -132 -239q-131 -225 -351 -225q-138 0 -210 50q-236 135 -236 414q0 267 264 422q58 28 172 43q105 121 239 121zM533 931h28q174 0 276 -215q15 -61 25 -61l25 -7v4
q26 67 35 71h4l7 -7l-25 -75q55 -21 93 -21h7l4 114v7q0 212 -165 279l-68 11h-46q-102 0 -200 -100zM454 723q0 -141 147 -210q33 -11 60 -11h33v3q-22 7 -22 43v7q0 38 50 75h4q-22 -31 -22 -53v-22q8 -42 36 -42q49 10 97 67v33q0 32 -36 32h-61q0 10 47 18h42v3
q0 44 -64 132q-91 108 -243 108h-7q-61 -72 -61 -183zM90 445q0 -221 193 -358v4q-25 41 -25 89q0 82 75 165q-39 47 -39 114v29q0 54 17 67h8l7 -7q-11 -37 -11 -75q0 -76 36 -118q85 68 168 68h14q87 0 132 -89l4 -43q104 66 150 200q-24 -11 -50 -11h-18l-22 4
q-16 -7 -46 -7h-36q-128 0 -200 168q-14 49 -14 89q0 58 46 164h-3q-88 0 -225 -100q-161 -155 -161 -353zM862 627v-18h3l4 18h-7zM890 613q-32 -35 -32 -90h4l10 4q-23 -19 -28 -72q-57 -142 -175 -196q-9 0 -47 -61q-67 -64 -143 -64h-7q-75 12 -75 71q0 19 32 50v4
q-43 13 -89 75h-4q-46 -63 -46 -125q0 -129 121 -175l61 -7h50q177 0 293 203q48 56 136 247q53 81 53 93v25h-28q-30 0 -86 21v-3zM887 548h7v-3l-11 -11h-4zM783 505h25q21 0 21 36zM354 348q70 -93 165 -93h35q79 8 79 22v18q0 77 -89 103l-43 7q-85 0 -147 -57zM440 252
l-14 -40q22 -64 68 -64h10q85 0 125 97q-38 -11 -64 -11h-43q-39 0 -82 18zM1087 91q17 -121 110 -121h7v4q-33 0 -114 113v4h-3z" />
    <glyph glyph-name="Y" unicode="Y" horiz-adv-x="1004" 
d="M597 1052h50q137 0 218 -136q14 -38 14 -71q0 -91 -67 -196l3 -36v-11l-3 -25h3l61 50h7l7 -7q-49 -63 -78 -71v-18l-4 -36h4q15 0 64 22q-15 -19 -68 -43q-11 -66 -11 -118q55 39 79 107q98 294 182 357q98 111 196 111h4q84 0 110 -65l4 -25q-11 -42 -50 -42
q-30 0 -32 35l3 50q-7 22 -28 22h-39q-87 0 -168 -154q-35 -59 -93 -371q-50 -167 -132 -257q0 -38 93 -103q31 -22 103 -35q65 0 65 31l-4 25l4 4h3q29 0 36 -39q0 -39 -57 -54q-137 0 -250 146l-4 11q-129 -117 -282 -117h-28q-139 0 -218 56q-232 153 -232 429
q0 298 311 431q89 143 224 143zM405 924v-4q49 11 89 11h46q99 0 197 -68v-4l-11 -14q-104 68 -207 68h-7q-135 -10 -139 -47q-22 -54 -22 -107q0 -191 204 -253l35 -3h40q8 0 28 82q41 79 114 178l-10 36h7l7 -22h7q39 72 39 114v8q0 114 -178 132h-36q-125 0 -203 -107z
M91 445q0 -219 196 -371h3q-28 47 -28 97q0 165 221 239l39 3h15q135 -23 135 -117q0 -75 -89 -143q-63 -29 -100 -29h-7q-75 12 -75 72q0 27 50 60v-7q-21 -30 -21 -46q22 -64 67 -64h11q93 0 129 110v36q0 77 -90 103l-42 7q-160 0 -211 -171v-25q0 -131 129 -178l28 -7
h29l3 -4l4 4h14q160 0 271 182q-18 72 -18 117v18q-93 0 -117 143v7q-214 0 -289 175q-18 49 -18 96v11q0 40 18 107h-4q-154 -69 -236 -285q-17 -87 -17 -140zM779 602q-32 -52 -32 -64l32 18l4 43v3h-4zM894 535v-4l-7 -7h-4zM733 510v-7l39 -8v22l4 3v4h-4zM722 478
q-10 -29 -10 -54q9 -71 46 -71v3q0 65 11 114zM794 335v-97h3q47 104 47 122q-37 -25 -50 -25z" />
    <glyph glyph-name="Z" unicode="Z" horiz-adv-x="1304" 
d="M899 1052h32q74 0 302 -99q70 -22 117 -22h7q73 0 128 96l3 4h11q7 0 7 -11q-31 -74 -128 -135q-40 -18 -117 -32q-99 -87 -178 -316l-71 -181v-57q0 -135 89 -220h4q137 0 188 114l4 28v11l-11 11l-57 -15h-14q-39 0 -39 47v3q11 64 53 64h18q78 -27 78 -114
q0 -117 -131 -205l53 -11q64 0 64 32l-4 25l4 3h3q29 0 36 -39q0 -38 -57 -53q-48 0 -124 32q-44 -14 -75 -14h-25q-81 0 -255 106h-4q-142 -106 -284 -106h-50q-216 0 -358 238q-50 97 -50 213v7q0 293 277 436q87 32 149 32h53q44 0 93 -21q107 149 259 149zM661 896
q118 -49 167 -156q14 -29 28 -89q134 -39 160 -39h14q27 73 206 245q-47 0 -348 131q-16 7 -46 7h-28q-82 0 -153 -99zM96 441q0 -246 224 -383h4q-47 51 -47 117q0 165 221 238l39 4h14q86 0 131 -89v-4h4q93 74 117 149h-39q-75 17 -75 64v11q0 37 50 74h4
q-22 -30 -22 -53v-21q0 -50 71 -50h22q14 59 14 103v29l-7 7h-64q0 10 46 17h21v4q0 99 -128 195l-46 25l-14 -46q0 -28 53 -28q30 0 43 -47q0 -42 -53 -49h-11q-60 16 -60 88q0 40 21 89h-4q-43 18 -81 18h-43q-193 0 -341 -220q-64 -115 -64 -242zM856 626v-39
q0 -40 -10 -85l42 18q-6 -11 -50 -36q-6 -54 -92 -149q-64 -42 -64 -60l-14 -47l107 -46q131 186 237 401v4h-21q-32 0 -135 39zM902 541h7v-4l-10 -10h-4zM309 204q0 -131 128 -178l29 -7h42q107 0 238 131q-60 49 -96 61q-26 -51 -106 -75l-46 -7h-7q-75 12 -75 71
q0 28 50 60v-7q-22 -30 -22 -46q22 -64 68 -64h10q79 0 114 78h-3l-64 22l-61 -7h-3q-19 0 -25 14v3q8 18 35 18h11l43 -7q57 18 81 39q0 71 -124 96h-7q-159 0 -210 -171v-24zM973 296q-5 -31 -113 -153q144 -60 216 -60q-99 131 -99 213h-4zM604 250l43 -11v4l3 21v7h-3
q-42 -16 -43 -21z" />
    <glyph glyph-name="bracketleft" unicode="[" horiz-adv-x="416" 
d="M10 -321l-1 7l400 1153h179l2 -8l-5 -19l-7 -5h-108l-380 -1097h111l3 -8l-8 -18l-8 -5h-178z" />
    <glyph glyph-name="backslash" unicode="\" horiz-adv-x="335" 
d="M259 -142h-52l-3 7l-8 934l7 4h31l5 -6l29 -932z" />
    <glyph glyph-name="bracketright" unicode="]" horiz-adv-x="416" 
d="M499 839v-8l-398 -1154h-180l-1 9l6 19l6 5h109l378 1096h-109l-5 9l9 18l7 6h178z" />
    <glyph glyph-name="asciicircum" unicode="^" horiz-adv-x="1000" 
d="M459 714h82l256 -275h-43l-255 219l-256 -219h-42z" />
    <glyph glyph-name="underscore" unicode="_" 
d="M0 -187h501v-49h-501v49z" />
    <glyph glyph-name="grave" unicode="`" 
d="M289 490l58 -109h-27l-73 84q-14 16 -14 28q0 24 26 24q16 0 30 -27z" />
    <glyph glyph-name="a" unicode="a" horiz-adv-x="410" 
d="M233 153q-91 -160 -157 -160q-37 0 -59.5 28t-22.5 77q0 96 99 186q66 60 148 60q48 0 88 -20l4 -5v-3q0 -13 -20 -80l-46 -155q-6 -20 -6 -34q0 -20 19 -20q43 0 212 243q3 -18 3 -15q0 -17 -36 -65q-86 -115 -115 -146q-50 -53 -91 -53q-49 0 -49 50q0 29 29 112z
M281 307q-16 14 -44 14q-50 0 -104 -77q-75 -106 -75 -174q0 -45 31 -45q33 0 83 70q54 76 109 212z" />
    <glyph glyph-name="b" unicode="b" horiz-adv-x="422" 
d="M279 70q-58 -79 -123 -79q-47 0 -74 35.5t-27 99.5q0 161 138 404q70 124 126 162l5 -2q9 -13 9 -49q0 -132 -53 -250q-48 -107 -159 -241v-20q-1 -10 -1 -11q0 -95 58 -95q48 0 90 69q-15 30 -15 66q0 107 66 171h4q13 -19 13 -51q0 -104 -43 -184q12 -24 31 -24
q27 0 72 51q35 42 108 149q3 -4 3 -15q0 -16 -31 -63q-97 -146 -152 -146q-28 0 -45 23zM126 193q153 182 153 346q0 36 -9 67q-91 -118 -144 -413z" />
    <glyph glyph-name="c" unicode="c" horiz-adv-x="356" 
d="M444 271q2 -4 2 -12q0 -24 -33 -72q-137 -199 -281 -199q-54 0 -88.5 35t-34.5 90q0 78 64 151q73 83 152 83q38 0 60 -18.5t22 -47.5q0 -25 -18.5 -42.5t-45.5 -17.5q-19 0 -30 15q37 17 37 51q0 37 -32 37q-35 0 -71 -44q-30 -37 -48.5 -86.5t-18.5 -89.5q0 -88 79 -88
q128 0 285 255z" />
    <glyph glyph-name="d" unicode="d" horiz-adv-x="406" 
d="M224 136q-82 -145 -145 -145q-38 0 -60.5 27.5t-22.5 74.5q0 94 80 177q71 74 145 74q17 0 52 -14l72 280q3 12 6 16.5t12 6.5l40 4q9 0 9 -9q0 -1 -1 -5t-1 -7l-142 -527q-7 -26 -7 -39q0 -26 16 -26q22 0 73 62q43 50 136 181q3 -9 3 -14q0 -20 -61 -103
q-63 -86 -97 -119q-43 -41 -81 -41q-22 0 -35.5 13t-13.5 33q0 29 23 100zM265 296q-17 24 -38 24q-32 0 -80 -58q-88 -106 -88 -192q0 -46 34 -46t81 69q52 76 91 203z" />
    <glyph glyph-name="e" unicode="e" horiz-adv-x="354" 
d="M440 273q3 -9 3 -12q0 -29 -43 -88q-134 -185 -273 -185q-53 0 -85 34t-32 91q0 80 69 160q64 74 137 74q37 0 60 -19.5t23 -48.5q0 -47 -56 -95q-61 -51 -164 -83q0 -85 74 -85q60 0 133 64q78 68 154 193zM79 124q72 17 118 64q43 45 43 96q0 39 -33 39q-38 0 -74 -51
q-41 -58 -54 -148z" />
    <glyph glyph-name="f" unicode="f" horiz-adv-x="290" 
d="M37 80q-55 28 -55 39q1 4 5 8l14 21q4 6 8 6q6 0 12 -4l26 -17q105 463 203 566h5q21 -26 21 -109q0 -209 -153 -368q-6 -57 -27 -120q32 -25 74 -25q49 0 98 52q34 36 113 154q0 -2 1 -7v-6q0 -26 -41 -82q-57 -78 -92 -107q-46 -38 -101 -38q-38 0 -69 21
q31 -93 31 -150q0 -136 -100 -203l-4 2q-13 17 -13 106q0 94 44 261zM16 -234q71 52 71 154q0 45 -14 90q-57 -137 -57 -225v-19zM135 270q102 110 102 240q0 52 -18 100q-16 -39 -37 -140q-30 -136 -47 -200z" />
    <glyph glyph-name="g" unicode="g" horiz-adv-x="412" 
d="M47 -289l-6 2q-7 11 -7 31q0 65 36 117q34 49 111 98q4 66 53 198q-87 -158 -161 -158q-35 0 -57.5 27.5t-22.5 72.5q0 92 83 171q78 74 168 74q89 0 89 -28q0 -22 -32 -128l-60 -198q99 69 254 281q1 -4 1 -13q0 -21 -34 -65q-134 -173 -226 -234q-43 -187 -189 -248z
M84 -244q76 39 97 174q-101 -61 -101 -146q0 -13 4 -28zM280 305q-13 16 -41 16q-43 0 -97 -65q-86 -103 -86 -180q0 -43 33 -43q34 0 83 67q54 73 108 205z" />
    <glyph glyph-name="h" unicode="h" horiz-adv-x="456" 
d="M12 21l58 210q53 192 118 317q59 115 113 145h3q22 -25 22 -74q0 -150 -181 -343l-41 -153q144 218 213 218q25 0 40.5 -16.5t15.5 -41.5q0 -19 -22 -84l-34 -100q-10 -29 -10 -49q0 -17 20 -17q54 0 212 234q2 -8 2 -17q0 -25 -73 -115q-116 -142 -167 -142
q-57 0 -57 60q0 22 35 123q32 92 32 107q0 21 -18 21q-42 0 -143 -151q-32 -48 -62 -110q-18 -37 -29 -39l-38 -7q-1 0 -2 -1h-3q-7 0 -7 10q0 4 3 15zM157 321q116 124 116 246q0 40 -12 61q-31 -36 -56 -116q-20 -60 -48 -191z" />
    <glyph glyph-name="i" unicode="i" horiz-adv-x="247" 
d="M33 119l63 197q7 16 20 17l37 8h3q7 0 7 -8q0 -1 -2 -6l-68 -210q-14 -43 -14 -65q0 -28 25 -28q58 0 229 250q0 -2 1 -6t1 -7q0 -24 -54 -97q-126 -170 -205 -170q-58 0 -58 61q0 17 15 64zM184 425q-20 0 -40 11t-20 20q0 8 12 28.5t17 20.5t13 -6q13 -9 19 -12
l12.5 -6.5t6.5 -10.5q0 -45 -20 -45z" />
    <glyph glyph-name="j" unicode="j" horiz-adv-x="243" 
d="M46 -68l-46 -154q-16 -53 -22 -62l-3 1q-12 24 -12 67q0 153 56 219q5 58 22 123l52 193q4 17 18 19l39 7h4q9 0 9 -9q-2 -7 -2 -9l-108 -364q90 57 280 307q3 -7 3 -12q0 -24 -55 -91q-149 -182 -235 -235zM191 425q-20 0 -39.5 11t-19.5 20q0 8 11 28.5t16 20.5t13 -6
q14 -10 19.5 -12.5t12 -6t6.5 -10.5q0 -45 -19 -45z" />
    <glyph glyph-name="k" unicode="k" horiz-adv-x="458" 
d="M7 13l89 316q41 146 97 244q52 92 105 123l6 -1q20 -19 20 -70q0 -154 -179 -346l-41 -158q133 223 232 223q28 0 46.5 -17t18.5 -43q0 -68 -154 -137q34 -110 77 -110q55 0 217 236q3 -5 3 -14q0 -19 -42 -77q-71 -98 -114 -139q-49 -47 -86 -47q-38 0 -72 51
q-37 56 -37 85q0 10 32 25q113 52 113 104q0 35 -39 35q-63 0 -172 -173q-33 -52 -51 -102q-6 -16 -24 -20l-34 -7q-1 0 -2 -1h-3q-9 0 -9 8q0 1 3 12zM157 324q116 122 116 233q0 44 -12 79q-31 -28 -55 -109q-14 -45 -49 -203z" />
    <glyph glyph-name="l" unicode="l" horiz-adv-x="316" 
d="M129 197q-10 -45 -10 -84q0 -86 48 -86q37 0 95 62q51 56 138 185l3 -18q0 -19 -53 -92q-126 -174 -205 -174q-42 0 -67 32t-25 91q0 50 36 203q27 117 87 240q54 111 97 139l7 1q16 -16 16 -72q0 -212 -167 -427zM133 237q110 143 110 279q0 39 -9 91
q-75 -145 -101 -370z" />
    <glyph glyph-name="m" unicode="m" horiz-adv-x="652" 
d="M1 15l92 301q3 11 15 14l40 9h5q8 0 8 -9q0 -3 -1 -6l-62 -203q66 116 109 167q48 56 89 56q54 0 54 -48q0 -26 -45 -177q135 222 211 222q50 0 50 -57q0 -23 -15 -66q-30 -87 -31 -89q-18 -58 -18 -74q0 -22 22 -22q25 0 77 60q44 50 134 177q1 -3 1 -14q0 -23 -50 -90
q-72 -96 -106 -128q-47 -45 -90 -45q-22 0 -36.5 15.5t-14.5 38.5q0 40 34 132t34 105q0 20 -21 20q-45 0 -157 -185q-17 -28 -45 -86q-15 -31 -26 -33l-34 -6h-3q-11 0 -11 5q0 8 3 14l66 240q7 25 7 34q0 20 -16 20q-43 0 -146 -177q-22 -38 -48 -95q-15 -33 -23 -34
l-43 -7h-3q-7 0 -7 7q0 9 1 14z" />
    <glyph glyph-name="n" unicode="n" horiz-adv-x="453" 
d="M1 16l89 291q10 23 24 26l34 8q2 1 8 1q7 0 7 -9q0 -1 -2 -6l-68 -216q151 233 224 233q23 0 39 -16.5t16 -40.5q0 -28 -25 -99q-42 -120 -42 -136t19 -16q45 0 211 234q3 -15 3 -14q0 -20 -73 -115q-114 -148 -169 -148q-24 0 -40.5 17.5t-16.5 44.5q0 25 42 149
q26 77 26 83q0 15 -17 15q-38 0 -140 -143q-52 -74 -71 -119q-5 -13 -10.5 -24.5t-18.5 -14.5l-37 -5h-4q-9 0 -9 8q0 9 1 12z" />
    <glyph glyph-name="o" unicode="o" horiz-adv-x="419" 
d="M289 256q-14 70 -65 70q-31 0 -60 -28q-38 -37 -61.5 -93.5t-23.5 -108.5q0 -87 63 -87q50 0 105 84q-6 17 -6 37q0 62 48 126zM302 96q5 -20 25 -20q22 0 66 52q33 38 114 151q3 -15 3 -12q0 -21 -43 -79q-60 -81 -92 -112q-39 -39 -67 -39q-21 0 -38 18
q-68 -68 -138 -68q-57 0 -91.5 34.5t-34.5 92.5q0 81 71 157t151 76q47 0 80 -36t33 -92q0 -53 -39 -123z" />
    <glyph glyph-name="p" unicode="p" horiz-adv-x="437" 
d="M-12 -293h-4q-15 48 -15 120q0 134 78 275l32 172q13 58 32 62l43 9q7 0 7 -10v-5l-28 -115q97 132 169 132q36 0 57.5 -23.5t21.5 -62.5q0 -111 -160 -199q18 -29 56 -29q49 0 111 63q56 57 139 185q3 -4 3 -13q0 -28 -57 -102q-69 -89 -115 -126q-54 -43 -108 -43
q-41 0 -73.5 19t-32.5 34q0 9 16 17l39 20q109 64 109 157q0 52 -46 52q-59 0 -142 -140q-85 -378 -132 -449zM-1 -213q24 47 40 252q-48 -78 -48 -202q0 -29 8 -50z" />
    <glyph glyph-name="q" unicode="q" horiz-adv-x="403" 
d="M104 -289l-5 2q-3 8 -3 31q0 61 33 163q21 69 84 229q-80 -139 -143 -139q-36 0 -58 28t-22 76q0 77 66 152q80 91 177 91q90 0 90 -28q0 -12 -40 -141l-36 -116q14 -9 29 -9q31 0 82 56q44 49 126 167q5 -8 5 -15q0 -22 -50 -86q-62 -80 -90 -107q-40 -37 -72 -37
q-15 0 -24 3v-12q0 -164 -149 -308zM113 -243q54 47 87 118.5t33 145.5v6q-112 -210 -120 -270zM270 307q-13 14 -39 14q-45 0 -87 -48q-95 -107 -95 -197q0 -46 35 -46q70 0 186 277z" />
    <glyph glyph-name="r" unicode="r" horiz-adv-x="323" 
d="M407 279q3 -4 3 -12q0 -17 -15 -41q-3 -5 -39 -54q-75 -103 -107 -136q-47 -46 -88 -46q-65 0 -65 63q0 71 105 227q-61 -39 -94 -39q-39 0 -39 35q0 30 18 54t43 26l1 -3q-11 -24 -11 -32q0 -25 29 -25q22 0 119 34l4 -3q-111 -235 -111 -271q0 -28 27 -28t81 64
q35 42 139 187z" />
    <glyph glyph-name="s" unicode="s" horiz-adv-x="360" 
d="M193 13q-54 -23 -94 -23q-44 0 -71 16t-27 40q0 19 16 31.5t41 12.5q14 0 28 -6v-3q-19 -12 -19 -34q0 -34 52 -34q38 0 61.5 18t23.5 45q0 23 -16 42q-11 13 -44 38q-42 33 -53 43q-21 22 -21 45q0 39 44 71t107 32q69 0 69 -46q0 -18 -19 -33.5t-50 -17.5l-3 6
q19 17 19 37q0 30 -41 30q-29 0 -48 -14t-19 -35q0 -22 23 -43l58 -44q52 -42 52 -80q0 -29 -29 -61q79 11 213 235q4 -3 4 -11q0 -31 -54.5 -104.5t-97.5 -107.5q-50 -39 -105 -45z" />
    <glyph glyph-name="t" unicode="t" horiz-adv-x="253" 
d="M44 153l42 143h-55l-1 6l3 14l6 5h56l41 129q6 20 20 23l35 8h5q5 0 5 -7v-7l-41 -146h52l1 -5l-3 -15l-4 -5h-53l-60 -204q-7 -24 -7 -45q0 -23 24 -23q64 0 223 249q3 -5 3 -14q0 -24 -47 -89q-130 -180 -200 -180q-65 0 -65 63q0 32 20 100z" />
    <glyph glyph-name="u" unicode="u" horiz-adv-x="450" 
d="M24 105l68 209q3 10 6 13.5t12 5.5l41 8h5q7 0 7 -8q-2 -7 -2 -9l-80 -231q-8 -32 -8 -43q0 -20 19 -20q22 0 72 53q55 60 120 161q9 15 31 61q12 25 26 28l37 9h3q9 0 9 -9l-3 -9l-77 -228q-9 -27 -9 -44q0 -21 19 -21q48 0 213 249q5 -7 5 -13q0 -23 -59 -106
q-121 -170 -187 -170q-53 0 -53 59q0 33 48 166q-151 -225 -226 -225q-51 0 -51 53q0 18 14 61z" />
    <glyph glyph-name="v" unicode="v" horiz-adv-x="421" 
d="M270 87q-67 -97 -132 -97q-71 0 -71 127q0 48 14 169q3 30 5 33q3 8 15 11l37 9q1 1 3 2q9 0 9 -14q0 -11 -11.5 -82t-11.5 -129q0 -86 42 -86q48 0 90 83q-6 26 -6 46q0 44 29 92.5t79 84.5l6 -1q3 -6 3 -16q0 -95 -84 -209q9 -40 40 -40q27 0 71 51q26 32 107 146
q3 -3 3 -14q0 -19 -54 -92q-84 -114 -132 -114q-31 0 -51 40z" />
    <glyph glyph-name="w" unicode="w" horiz-adv-x="647" 
d="M290 201q-122 -210 -204 -210q-58 0 -58 68q0 23 11 64l53 196q1 12 15 14l40 6q2 0 3.5 1t2.5 1q6 0 6 -6q0 7 -3 -11l-57 -203q-12 -43 -12 -59q0 -32 29 -32q53 0 151 173q14 25 42 92q15 34 32 37l38 7h5q4 0 4 -6t-1 -12l-52 -177q-14 -48 -14 -79q0 -41 35 -41
q46 0 127 99q-4 36 -4 44q0 52 21 98.5t54 72.5l5 -2q11 -14 11 -47q0 -74 -63 -168q5 -51 43 -51q29 0 73 50q38 43 106 148q1 -4 1 -13q0 -26 -51 -96q-81 -112 -131 -112q-44 0 -61 51q-99 -108 -161 -108q-64 0 -64 74q0 28 28 137z" />
    <glyph glyph-name="x" unicode="x" horiz-adv-x="436" 
d="M150 116l-80 -100q-50 -63 -82 -63t-32 35q0 42 41 70l3 -2q-3 -27 -3 -19q0 -25 24 -25q19 0 47 35l70 89l-82 183q-1 2 -1 5q0 8 9 9l37 6q1 0 2 1t2 1q6 0 11 -12l60 -133l79 94q43 51 75 51q17 0 29.5 -14.5t12.5 -36.5q0 -33 -25.5 -70.5t-67.5 -60.5l-3 4
q53 57 53 104q0 26 -27 26q-22 0 -77 -69l-38 -48l37 -80q29 -63 66 -63q35 0 90 60q47 51 136 177q3 -5 3 -14q0 -19 -55 -92q-131 -173 -194 -173q-38 0 -66 31q-25 27 -54 94z" />
    <glyph glyph-name="y" unicode="y" horiz-adv-x="450" 
d="M273 -52q-52 -192 -187 -241l-6 1q-7 23 -7 42q0 108 149 216q5 40 59 231q-121 -197 -214 -197q-51 0 -51 58q0 14 14 59l63 202q4 12 21 14l42 5q5 0 5 -5q0 1 -2 -9l-72 -228q-6 -19 -6 -41q0 -19 20 -19q55 0 163 170q23 36 51 94q15 32 26 33l43 6q7 0 7 -6
q0 1 -34 -96q-43 -120 -76 -255q105 86 251 286q3 -12 3 -13q0 -24 -59 -96q-128 -156 -203 -211zM124 -250q76 39 97 186q-104 -70 -104 -151q0 -15 7 -35z" />
    <glyph glyph-name="z" unicode="z" horiz-adv-x="356" 
d="M44 16q-19 -25 -37 -25q-7 0 -7 5q0 2 1 8l33 63q6 12 16 12h11l170 185q-75 17 -92 17q-21 0 -34.5 -24t-21.5 -24q-16 0 -16 10q0 7 5 19q7 18 9 24q11 39 15 44q8 14 30 14q9 0 53 -8q56 -11 102 -17q25 28 36 28q12 0 12 -5q0 -7 -18 -26l-227 -243q117 -32 141 -32
q36 0 87 59q38 43 124 170q3 -9 3 -21q0 -16 -72 -111q-60 -79 -96 -111q-42 -39 -78 -39q-14 0 -58 11q-54 12 -91 17z" />
    <glyph glyph-name="braceleft" unicode="{" horiz-adv-x="601" 
d="M496 859v-29q-90 0 -119.5 -33t-29.5 -123v-84q0 -124 -31 -172q-36 -56 -144 -76q108 -19 144 -75q31 -49 31 -172v-86q0 -89 28 -119q30 -33 121 -34v-28h-7q-126 0 -172.5 44t-46.5 159v126q0 90 -34.5 126t-131.5 43v34q99 7 132.5 42t33.5 127v126q0 115 46.5 159.5
t172.5 44.5h7z" />
    <glyph glyph-name="bar" unicode="|" horiz-adv-x="601" 
d="M268 887h64v-1200h-64v1200z" />
    <glyph glyph-name="braceright" unicode="}" horiz-adv-x="601" 
d="M105 859h5q128 0 174 -44t46 -160v-126q0 -92 34 -127t132 -42v-34q-98 -7 -132 -43t-34 -126v-126q0 -116 -46 -159.5t-174 -43.5h-5v28q91 1 121 34q29 30 29 119v86q0 123 30 172q35 56 142 75q-107 20 -142 76q-30 48 -30 172v84q0 89 -31 122.5t-119 33.5v29z" />
    <glyph glyph-name="asciitilde" unicode="~" horiz-adv-x="833" 
d="M747 366v-55q-98 -70 -188 -70q-46 0 -143 33q-100 34 -140 34q-77 0 -189 -78v54q104 72 189 72q45 0 140 -33q103 -36 143 -36q77 0 188 79z" />
    <glyph glyph-name="cent" unicode="&#xa2;" horiz-adv-x="464" 
d="M204 -1l-31 -11l31 129q-121 19 -121 144q0 107 90 186q51 45 122 48l26 111l32 13l-30 -126q57 -9 80 -32v-8l-13 -17h-6q-39 34 -65 35l-80 -330q69 5 128 86h6l21 -24v-4q-56 -74 -161 -80zM210 142l79 331q-41 -3 -73 -43q-71 -88 -71 -190q0 -81 65 -98z" />
    <glyph glyph-name="circumflex" unicode="&#x2c6;" 
d="M301 513h49l78 -132h-25l-80 89l-145 -89h-31z" />
    <glyph glyph-name="tilde" unicode="&#x2dc;" 
d="M433 493h22q-22 -89 -83 -89q-9 0 -27 5l-69 19q-18 5 -30 5q-37 0 -46 -39h-24q25 86 83 86q20 0 34 -4l71 -20q11 -3 23 -3q37 0 46 40z" />
    <glyph glyph-name="endash" unicode="&#x2013;" 
d="M464 215l-11 -31l-4 -3h-482l-3 4l11 31l7 3z" />
    <glyph glyph-name="emdash" unicode="&#x2014;" horiz-adv-x="1000" 
d="M1034 219l-10 -38h-1000l12 38h998z" />
    <glyph glyph-name="quoteleft" unicode="&#x2018;" horiz-adv-x="231" 
d="M244 713l-5 -24q-83 -47 -83 -85q0 -19 22 -19q8 0 26 8l3 -5l-11 -43q-6 -24 -40 -24q-49 0 -49 49q0 74 137 143z" />
    <glyph glyph-name="quoteright" unicode="&#x2019;" horiz-adv-x="231" 
d="M108 516l6 23q82 46 82 85q0 19 -21 19q-6 0 -25 -7l-5 4l12 43q7 24 40 24q47 0 47 -51q0 -73 -136 -140z" />
    <glyph glyph-name="quotesinglbase" unicode="&#x201a;" horiz-adv-x="231" 
d="M28 -102l8 23q80 47 80 83q0 21 -21 21q-6 0 -25 -7l-5 4l12 45q5 20 40 20q47 0 47 -48q0 -72 -136 -141z" />
    <glyph glyph-name="quotedblleft" unicode="&#x201c;" horiz-adv-x="382" 
d="M244 713l-5 -24q-83 -47 -83 -85q0 -19 22 -19q8 0 26 8l3 -5l-11 -43q-6 -24 -40 -24q-49 0 -49 49q0 74 137 143zM396 713l-8 -24q-81 -46 -81 -85q0 -19 20 -19q11 0 27 8l5 -5l-12 -43q-7 -24 -40 -24q-49 0 -49 49q0 74 138 143z" />
    <glyph glyph-name="quotedblright" unicode="&#x201d;" horiz-adv-x="382" 
d="M108 516l6 23q82 46 82 85q0 19 -21 19q-6 0 -25 -7l-5 4l12 43q7 24 40 24q47 0 47 -51q0 -73 -136 -140zM259 516l6 23q82 46 82 85q0 19 -23 19q-4 0 -25 -7l-4 4l12 43q7 24 40 24q21 0 35 -14.5t14 -36.5q0 -72 -137 -140z" />
    <glyph glyph-name="quotedblbase" unicode="&#x201e;" horiz-adv-x="382" 
d="M28 -102l8 23q80 47 80 83q0 21 -21 21q-6 0 -25 -7l-5 4l12 45q5 20 40 20q47 0 47 -48q0 -72 -136 -141zM179 -102l6 23q82 48 82 83q0 21 -23 21q-4 0 -25 -7l-3 4l12 45q8 20 40 20q48 0 48 -48q0 -72 -137 -141z" />
    <glyph glyph-name="ellipsis" unicode="&#x2026;" horiz-adv-x="1000" 
d="M150 -4q-46 0 -46 17q0 54 15 54q13 -2 48 -11q15 0 15 -40q0 -20 -32 -20zM481 -4q-45 0 -45 17q0 54 14 54q6 0 51 -11q15 0 15 -40q0 -20 -35 -20zM816 -4q-46 0 -46 17q0 54 15 54q4 0 49 -11q15 0 15 -40q0 -20 -33 -20z" />
    <glyph glyph-name="guilsinglleft" unicode="&#x2039;" horiz-adv-x="316" 
d="M279 305q11 8 19 8q12 0 12 -9q0 -7 -14 -20l-120 -111l30 -124q1 -5 2 -9.5t1 -5.5q0 -13 -9 -13t-18 18l-69 143z" />
  </font>
</defs>
</svg>
